<?xml version="1.0" encoding="UTF-8"?>
<svg version="1.1" viewBox="0 0 2048 1820" width="1280" height="1280" xmlns="http://www.w3.org/2000/svg">
  <defs>
    <linearGradient id="backgroundGradient" x1="0%" y1="0%" x2="100%" y2="100%">
      <stop offset="0%" style="stop-color:#87CEFA;stop-opacity:1" />
      <stop offset="100%" style="stop-color:#1E3A8A;stop-opacity:1" />
    </linearGradient>
    <linearGradient id="foregroundGradient" x1="0%" y1="0%" x2="100%" y2="100%">
      <stop offset="0%" style="stop-color:#ADD8E6;stop-opacity:1" />
      <stop offset="100%" style="stop-color:#1E3A8A;stop-opacity:1" />
    </linearGradient>
  </defs>
  <path transform="translate(0)" d="m0 0h2048v1820h-2048z" fill="#FEFEFE"/>
  <path transform="translate(566,699)" d="m0 0h790v584l-1 14-4 14-8 17-12 14-12 9-16 8-10 3-8 1-91 1-1 205-3 19-4 11-9 15-11 12-10 8-14 8-17 5-14 2h-9l-19-3-12-4-12-6-14-11-9-10-10-17-4-11-2-10-1-13v-201h-117v200l-2 19-4 14-10 18-13 14-13 9-12 6-14 4-14 2h-10l-14-2-17-5-11-6-12-9-8-8-9-13-6-12-4-15-1-11-1-204-93-1-16-4-16-8-13-10-10-12-8-16-4-11-2-19v-578z" fill="url(#backgroundGradient)"/>
  <path transform="translate(708,219)" d="m0 0 9 2 7 8 33 51 16 25 15 23 3 3 43-15 38-9 25-4 18-2 31-2h24l34 2 34 4 19 4 33 8 40 14 4-4 10-16 10-15 11-17 15-23 13-20 7-10 5-5 2-1h9l5 3 4 5 1 7-4 10-33 51-10 15-7 11-11 17-3 5 20 10 23 14 20 14 16 13 11 9 7 7 8 7 7 8 8 8 9 11 13 17 12 18 12 21 11 23 8 21 8 29 4 19 2 16 1 16v30l-1 8-1 1h-792l-1-9v-28l2-26 5-26 8-29 11-28 13-26 13-21 14-19 9-11 11-13 23-23 11-9 16-13 14-10 22-14 18-10 10-5-6-10-16-25-18-27-10-16-15-23-3-10 2-7 6-5z" fill="url(#foregroundGradient)"/>
  <path transform="translate(1475,685)" d="m0 0h16l16 3 16 6 13 8 10 9 9 10 9 16 4 11 2 13v390l-3 16-7 16-7 11-9 10-12 9-15 8-17 5-9 1h-17l-15-3-16-6-14-9-10-9-8-10-8-14-4-12-3-21v-375l3-20 5-13 6-11 8-10 10-10 14-9 11-5 15-4z" fill="url(#foregroundGradient)"/>
  <path transform="translate(430,685)" d="m0 0h15l17 3 13 5 13 7 13 11 9 11 8 14 4 13 3 18v376l-3 19-5 16-7 12-8 10-7 7-10 7-14 7-16 5-8 1h-18l-16-3-15-6-12-7-12-10-10-13-8-16-4-13-1-9v-387l2-14 5-13 8-14 9-11 11-10 16-9 16-5z" fill="url(#foregroundGradient)"/>
  <path transform="translate(775,451)" d="m0 0 11 1 14 7 8 8 5 10 2 8v9l-4 13-6 8-9 8-11 4h-17l-9-3-10-8-6-9-4-11v-13l4-12 7-9 10-7 8-3z" fill="#FEFEFE"/>
  <path transform="translate(1142,451)" d="m0 0 11 1 10 4 9 7 6 8 4 12v12l-3 11-6 9-8 7-9 4-4 1h-17l-10-4-10-9-5-8-3-8-1-11 3-12 5-9 7-7 14-7z" fill="#FEFEFE"/>
</svg>
