<?xml version="1.0" encoding="UTF-8"?>
<svg version="1.1" xmlns="http://www.w3.org/2000/svg" width="424" height="405">
<path d="M0 0 C139.92 0 279.84 0 424 0 C424 133.65 424 267.3 424 405 C284.08 405 144.16 405 0 405 C0 271.35 0 137.7 0 0 Z " fill="#E7515C" transform="translate(0,0)"/>
<path d="M0 0 C139.92 0 279.84 0 424 0 C424 133.65 424 267.3 424 405 C284.08 405 144.16 405 0 405 C0 271.35 0 137.7 0 0 Z M180 27 C179.16100975 29.98363828 179.16100975 29.98363828 178.875 33.25 C178.39636211 37.06628244 177.90739828 40.73090339 176.875 44.4375 C176.05201999 47.78820432 175.82847815 50.56956297 176 54 C175.4028418 54.09289307 174.80568359 54.18578613 174.19042969 54.28149414 C167.41219951 55.46880142 161.51357445 57.63203503 155.25 60.4375 C154.34378906 60.83259766 153.43757813 61.22769531 152.50390625 61.63476562 C148.80313776 63.25824144 145.20789977 64.88458146 141.671875 66.84765625 C138.44958536 68.23738643 137.32254207 67.96217288 134 67 C131.78344727 65.69311523 131.78344727 65.69311523 129.56640625 64.05859375 C128.75236328 63.47529297 127.93832031 62.89199219 127.09960938 62.29101562 C125.40888361 61.05583568 123.72136956 59.81624743 122.03710938 58.57226562 C121.22177734 57.99025391 120.40644531 57.40824219 119.56640625 56.80859375 C118.83365479 56.27032959 118.10090332 55.73206543 117.34594727 55.17749023 C114.28537546 53.64131188 112.40228759 53.64300501 109 54 C106.41585629 55.67896818 106.41585629 55.67896818 104.09619141 58.12744141 C103.17569 59.02902985 102.2551886 59.93061829 101.30679321 60.85952759 C100.32094775 61.85611287 99.33588936 62.85347726 98.3515625 63.8515625 C97.32968175 64.86939953 96.3069119 65.88634463 95.28329468 66.9024353 C93.14364495 69.03324849 91.0151994 71.17451179 88.89404297 73.32373047 C86.17708628 76.07487295 83.43407611 78.79819506 80.68209267 81.51424599 C78.56592821 83.60870634 76.4642913 85.71727681 74.36674118 87.83036423 C73.36084437 88.84025732 72.3504884 89.84572941 71.33562088 90.84660721 C69.91836076 92.24859406 68.52237858 93.6719921 67.12744141 95.09619141 C66.32835358 95.9000528 65.52926575 96.70391418 64.70596313 97.53213501 C62.58847416 100.5953178 62.58863013 102.34808849 63 106 C63.89826446 108.1223783 63.89826446 108.1223783 65.30078125 109.9453125 C65.78353516 110.62980469 66.26628906 111.31429687 66.76367188 112.01953125 C67.27478516 112.71433594 67.78589844 113.40914063 68.3125 114.125 C68.81201172 114.82753906 69.31152344 115.53007813 69.82617188 116.25390625 C71.77231129 118.98107909 73.66671284 121.63209442 75.91796875 124.1171875 C77 126 77 126 76.921875 128.75390625 C75.78764953 132.7477256 74.11227442 136.23928807 72.25 139.9375 C65.65345001 152.94412811 65.65345001 152.94412811 63 167 C61.82244141 167.07347656 61.82244141 167.07347656 60.62109375 167.1484375 C54.79233253 167.56324505 49.60408234 168.27566697 44 170 C42.60588046 170.14285096 41.20977618 170.26732 39.8125 170.375 C35.52098806 171.07852655 34.57067883 171.61265794 32 175 C31.39507729 178.03242724 31.39507729 178.03242724 31.48242188 181.44921875 C31.46981323 182.75737549 31.45720459 184.06553223 31.44421387 185.41333008 C31.45137367 186.83805887 31.45957766 188.26278274 31.46875 189.6875 C31.46605451 191.15193947 31.46217162 192.61637719 31.45715332 194.08081055 C31.45126081 197.1474718 31.45981254 200.21366649 31.47851562 203.28027344 C31.5013059 207.20813636 31.48818137 211.13490606 31.46422577 215.06272888 C31.44976059 218.08598037 31.45437689 221.10897333 31.46473694 224.13223267 C31.46740228 225.58029307 31.46414118 227.02837706 31.45481873 228.47640991 C31.44464341 230.5011957 31.46290668 232.52606394 31.48242188 234.55078125 C31.48560425 235.70231689 31.48878662 236.85385254 31.49206543 238.0402832 C32.10961208 241.63870571 33.13368794 242.80567073 36 245 C38.9151264 245.84016464 38.9151264 245.84016464 42.125 246.125 C47.11280004 246.75338426 51.96967229 247.5565892 56.87890625 248.6328125 C59.29812285 249.11371688 59.29812285 249.11371688 63 249 C63.14695312 249.69222656 63.29390625 250.38445312 63.4453125 251.09765625 C66.00962849 262.28337946 69.7972566 273.375714 76.21484375 282.97265625 C77.44384152 286.14603855 77.01605444 287.72647122 76 291 C73.46328285 295.19317501 70.49169925 299.0804186 67.57226562 303.01171875 C66.99025391 303.82253906 66.40824219 304.63335937 65.80859375 305.46875 C65.00119751 306.55833008 65.00119751 306.55833008 64.17749023 307.66992188 C62.63534067 310.72160659 62.64370167 312.60328598 63 316 C64.67896818 318.58414371 64.67896818 318.58414371 67.12744141 320.90380859 C68.47982407 322.2845607 68.47982407 322.2845607 69.85952759 323.69320679 C70.85611287 324.67905225 71.85347726 325.66411064 72.8515625 326.6484375 C73.86939953 327.67031825 74.88634463 328.6930881 75.9024353 329.71670532 C78.03324849 331.85635505 80.17451179 333.9848006 82.32373047 336.10595703 C85.07487295 338.82291372 87.79819506 341.56592389 90.51424599 344.31790733 C92.60870634 346.43407179 94.71727681 348.5357087 96.83036423 350.63325882 C97.84025732 351.63915563 98.84572941 352.6495116 99.84660721 353.66437912 C101.24859406 355.08163924 102.6719921 356.47762142 104.09619141 357.87255859 C104.9000528 358.67164642 105.70391418 359.47073425 106.53213501 360.29403687 C109.5953178 362.41152584 111.34808849 362.41136987 115 362 C117.1223783 361.10173554 117.1223783 361.10173554 118.9453125 359.69921875 C119.62980469 359.21646484 120.31429687 358.73371094 121.01953125 358.23632812 C121.71433594 357.72521484 122.40914063 357.21410156 123.125 356.6875 C123.82753906 356.18798828 124.53007813 355.68847656 125.25390625 355.17382812 C127.98107909 353.22768871 130.63209442 351.33328716 133.1171875 349.08203125 C135 348 135 348 137.75390625 348.078125 C141.7477256 349.21235047 145.23928807 350.88772558 148.9375 352.75 C161.94412811 359.34654999 161.94412811 359.34654999 176 362 C176.05607422 362.804375 176.05607422 362.804375 176.11328125 363.625 C176.58673235 369.26927976 177.42020271 374.80743651 178.4375 380.375 C178.62082886 381.40947266 178.62082886 381.40947266 178.80786133 382.46484375 C179.45602668 385.90824851 180.0788255 389.03423252 182 392 C184.78714911 393.39357455 187.10382018 393.15817902 190.22216797 393.19287109 C191.53047577 393.20893402 192.83878357 393.22499695 194.18673706 393.24154663 C195.62188062 393.25303223 197.05703142 393.26364108 198.4921875 393.2734375 C199.21350986 393.27876118 199.93483223 393.28408485 200.67801285 393.28956985 C204.49512927 393.31629303 208.31221306 393.33567151 212.12939453 393.35009766 C216.07301452 393.36675455 220.01580023 393.41154176 223.95910454 393.4624691 C226.99086474 393.49611248 230.02242605 393.50767166 233.05435562 393.51332474 C234.50806183 393.52004417 235.96175464 393.53528454 237.41527939 393.55921555 C239.44963816 393.59080148 241.48444379 393.58790704 243.51904297 393.58349609 C245.25539505 393.59562637 245.25539505 393.59562637 247.02682495 393.60800171 C250.19067762 393.2477866 250.19067762 393.2477866 252.35372925 390.6212616 C254.05705233 387.90915888 254.73657616 385.97896375 255.265625 382.83984375 C255.43320313 381.88142578 255.60078125 380.92300781 255.7734375 379.93554688 C255.93070313 378.94619141 256.08796875 377.95683594 256.25 376.9375 C256.50910156 375.44766602 256.50910156 375.44766602 256.7734375 373.92773438 C257.46271957 369.86589361 258 366.13288399 258 362 C258.69222656 361.85304688 259.38445312 361.70609375 260.09765625 361.5546875 C271.28337946 358.99037151 282.375714 355.2027434 291.97265625 348.78515625 C295.14603855 347.55615848 296.72647122 347.98394556 300 349 C304.19317501 351.53671715 308.0804186 354.50830075 312.01171875 357.42773438 C312.82253906 358.00974609 313.63335937 358.59175781 314.46875 359.19140625 C315.19513672 359.72967041 315.92152344 360.26793457 316.66992188 360.82250977 C319.72160659 362.36465933 321.60328598 362.35629833 325 362 C327.58414371 360.32103182 327.58414371 360.32103182 329.90380859 357.87255859 C331.2845607 356.52017593 331.2845607 356.52017593 332.69320679 355.14047241 C333.67905225 354.14388713 334.66411064 353.14652274 335.6484375 352.1484375 C336.67031825 351.13060047 337.6930881 350.11365537 338.71670532 349.0975647 C340.85635505 346.96675151 342.9848006 344.82548821 345.10595703 342.67626953 C347.82291372 339.92512705 350.56592389 337.20180494 353.31790733 334.48575401 C355.43407179 332.39129366 357.5357087 330.28272319 359.63325882 328.16963577 C360.63915563 327.15974268 361.6495116 326.15427059 362.66437912 325.15339279 C364.08163924 323.75140594 365.47762142 322.3280079 366.87255859 320.90380859 C368.07119034 319.69801651 368.07119034 319.69801651 369.29403687 318.46786499 C371.41759022 315.39590941 371.43600911 313.66333935 371 310 C369.74449537 307.41671391 369.74449537 307.41671391 367.90234375 305.03125 C367.26619141 304.13019531 366.63003906 303.22914063 365.97460938 302.30078125 C364.61518368 300.43173385 363.2531969 298.56454657 361.88867188 296.69921875 C361.25380859 295.79816406 360.61894531 294.89710938 359.96484375 293.96875 C359.3730835 293.15857422 358.78132324 292.34839844 358.17163086 291.51367188 C356.64086651 288.22949815 357.06297479 286.45207618 358 283 C359.19320908 280.48533975 360.42360421 278.06539882 361.75 275.625 C365.77913118 267.92725792 371 257.88527474 371 249 C371.804375 248.94392578 371.804375 248.94392578 372.625 248.88671875 C378.23112745 248.41646793 383.76992037 247.63560625 389.3125 246.6875 C390.3344043 246.52930786 390.3344043 246.52930786 391.37695312 246.36791992 C395.96971978 245.54431538 398.72484466 244.31721271 402 241 C402.7419223 237.96797557 402.7419223 237.96797557 402.61523438 234.53491211 C402.62453979 233.22352768 402.63384521 231.91214325 402.64343262 230.5610199 C402.62784745 229.13311687 402.61126257 227.70522444 402.59375 226.27734375 C402.59203859 224.81051227 402.59210489 223.34367773 402.59387207 221.87684631 C402.59221977 218.80586403 402.57353811 215.73561259 402.54199219 212.66479492 C402.50227883 208.72797882 402.49795124 204.79211817 402.50545502 200.85513973 C402.50852371 197.82763409 402.49640858 194.8003434 402.47932434 191.77289009 C402.47229271 190.32122712 402.46917001 188.86953979 402.47001648 187.41786003 C402.46821973 185.39040317 402.44457976 183.36300106 402.41992188 181.33569336 C402.41150269 180.1819371 402.4030835 179.02818085 402.39440918 177.83946228 C402.23325966 175.0066713 402.23325966 175.0066713 400.6373291 173.17189026 C395.8666035 169.75732513 389.53511538 169.27987978 383.875 168.375 C383.07707031 168.2409375 382.27914063 168.106875 381.45703125 167.96875 C377.87317344 167.38240932 374.65548975 167 371 167 C370.8606604 166.1042627 370.8606604 166.1042627 370.71850586 165.19042969 C369.53119858 158.41219951 367.36796497 152.51357445 364.5625 146.25 C364.16740234 145.34378906 363.77230469 144.43757813 363.36523438 143.50390625 C361.74175856 139.80313776 360.11541854 136.20789977 358.15234375 132.671875 C356.76261357 129.44958536 357.03782712 128.32254207 358 125 C359.30688477 122.78344727 359.30688477 122.78344727 360.94140625 120.56640625 C361.52470703 119.75236328 362.10800781 118.93832031 362.70898438 118.09960938 C363.94416432 116.40888361 365.18375257 114.72136956 366.42773438 113.03710938 C367.00974609 112.22177734 367.59175781 111.40644531 368.19140625 110.56640625 C368.99880249 109.46727905 368.99880249 109.46727905 369.82250977 108.34594727 C371.35868812 105.28537546 371.35699499 103.40228759 371 100 C369.32103182 97.41585629 369.32103182 97.41585629 366.87255859 95.09619141 C365.97097015 94.17569 365.06938171 93.2551886 364.14047241 92.30679321 C363.14388713 91.32094775 362.14652274 90.33588936 361.1484375 89.3515625 C360.13060047 88.32968175 359.11365537 87.3069119 358.0975647 86.28329468 C355.96675151 84.14364495 353.82548821 82.0151994 351.67626953 79.89404297 C348.92512705 77.17708628 346.20180494 74.43407611 343.48575401 71.68209267 C341.39129366 69.56592821 339.28272319 67.4642913 337.16963577 65.36674118 C336.15974268 64.36084437 335.15427059 63.3504884 334.15339279 62.33562088 C332.75140594 60.91836076 331.3280079 59.52237858 329.90380859 58.12744141 C328.69801651 56.92880966 328.69801651 56.92880966 327.46786499 55.70596313 C324.39590941 53.58240978 322.66333935 53.56399089 319 54 C316.41671391 55.25550463 316.41671391 55.25550463 314.03125 57.09765625 C313.13019531 57.73380859 312.22914063 58.36996094 311.30078125 59.02539062 C309.43173385 60.38481632 307.56454657 61.7468031 305.69921875 63.11132812 C304.79816406 63.74619141 303.89710938 64.38105469 302.96875 65.03515625 C302.15857422 65.6269165 301.34839844 66.21867676 300.51367188 66.82836914 C297.2396069 68.35442177 295.44075368 67.92527903 292 67 C289.88365451 66.004879 287.80164968 64.93496051 285.75 63.8125 C280.08295269 60.8238109 274.33433646 58.56238752 268.25 56.5625 C267.07002441 56.1744519 267.07002441 56.1744519 265.86621094 55.77856445 C262.01071897 54.46685334 262.01071897 54.46685334 258 54 C257.92652344 52.82244141 257.92652344 52.82244141 257.8515625 51.62109375 C257.43675495 45.79233253 256.72433303 40.60408234 255 35 C254.85714904 33.60588046 254.73268 32.20977618 254.625 30.8125 C253.92147345 26.52098806 253.38734206 25.57067883 250 23 C246.96757276 22.39507729 246.96757276 22.39507729 243.55078125 22.48242188 C241.58854614 22.46350891 241.58854614 22.46350891 239.58666992 22.44421387 C238.16194113 22.45137367 236.73721726 22.45957766 235.3125 22.46875 C233.84806053 22.46605451 232.38362281 22.46217162 230.91918945 22.45715332 C227.8525282 22.45126081 224.78633351 22.45981254 221.71972656 22.47851562 C217.79186364 22.5013059 213.86509394 22.48818137 209.93727112 22.46422577 C206.91401963 22.44976059 203.89102667 22.45437689 200.86776733 22.46473694 C199.41970693 22.46740228 197.97162294 22.46414118 196.52359009 22.45481873 C194.4988043 22.44464341 192.47393606 22.46290668 190.44921875 22.48242188 C188.72191528 22.48719543 188.72191528 22.48719543 186.9597168 22.49206543 C183.35997817 23.10983795 182.19263844 24.1300365 180 27 Z " fill="#F6F6F6" transform="translate(0,0)"/>
<path d="M0 0 C1.30815674 -0.01260864 2.61631348 -0.02521729 3.96411133 -0.03820801 C5.38884012 -0.0310482 6.81356399 -0.02284422 8.23828125 -0.01367188 C9.70272072 -0.01636736 11.16715844 -0.02025026 12.6315918 -0.02526855 C15.69825305 -0.03116106 18.76444774 -0.02260934 21.83105469 -0.00390625 C25.75891761 0.01888402 29.68568731 0.00575949 33.61351013 -0.01819611 C36.63676162 -0.03266128 39.65975458 -0.02804499 42.68301392 -0.01768494 C44.13107432 -0.0150196 45.57915831 -0.0182807 47.02719116 -0.02760315 C49.05197695 -0.03777847 51.07684519 -0.0195152 53.1015625 0 C54.25309814 0.00318237 55.40463379 0.00636475 56.59106445 0.00964355 C60.19080308 0.62741607 61.35814281 1.64761462 63.55078125 4.51757812 C64.30859375 7.47070312 64.30859375 7.47070312 64.67578125 10.76757812 C65.15441914 14.58386056 65.64338297 18.24848151 66.67578125 21.95507812 C67.50495403 25.33099585 67.6187004 28.06825544 67.55078125 31.51757812 C68.24300781 31.66453125 68.93523437 31.81148437 69.6484375 31.96289062 C80.83416071 34.52720662 91.92649525 38.31483473 101.5234375 44.73242188 C104.6968198 45.96141964 106.27725247 45.53363257 109.55078125 44.51757812 C113.74395626 41.98086097 117.63119985 39.00927738 121.5625 36.08984375 C122.37332031 35.50783203 123.18414062 34.92582031 124.01953125 34.32617188 C125.10911133 33.51877563 125.10911133 33.51877563 126.22070312 32.69506836 C129.27238784 31.1529188 131.15406723 31.1612798 134.55078125 31.51757812 C137.01864624 33.22354126 137.01864624 33.22354126 139.45458984 35.64501953 C140.37509125 36.54660797 141.29559265 37.44819641 142.24398804 38.37710571 C143.2298335 39.37369099 144.21489189 40.37105539 145.19921875 41.36914062 C146.2210995 42.38697765 147.24386935 43.40392275 148.26748657 44.42001343 C150.4071363 46.55082662 152.53558185 48.69208992 154.65673828 50.84130859 C157.37369497 53.59245108 160.11670514 56.31577318 162.86868858 59.03182411 C164.98485304 61.12628447 167.08648995 63.23485494 169.18404007 65.34794235 C170.18993688 66.35783545 171.20029285 67.36330754 172.21516037 68.36418533 C173.63242049 69.76617218 175.02840267 71.18957023 176.42333984 72.61376953 C177.22242767 73.41763092 178.0215155 74.22149231 178.84481812 75.04971313 C180.96230709 78.11289592 180.96215112 79.86566662 180.55078125 83.51757812 C179.58862305 85.60400391 179.58862305 85.60400391 178.25 87.46289062 C177.76724609 88.14738281 177.28449219 88.831875 176.78710938 89.53710938 C176.27599609 90.23191406 175.76488281 90.92671875 175.23828125 91.64257812 C174.73876953 92.34511719 174.23925781 93.04765625 173.72460938 93.77148438 C171.77846996 96.49865722 169.88406841 99.14967255 167.6328125 101.63476562 C166.31172846 103.55390316 166.31172846 103.55390316 166.62890625 106.27148438 C167.76313172 110.26530372 169.43850683 113.75686619 171.30078125 117.45507812 C180.55078125 136.42506464 180.55078125 136.42506464 180.55078125 144.51757812 C181.08703125 144.55496094 181.62328125 144.59234375 182.17578125 144.63085938 C187.82006101 145.10431047 193.35821776 145.93778083 198.92578125 146.95507812 C199.61542969 147.07729736 200.30507813 147.1995166 201.015625 147.32543945 C204.45902976 147.97360481 207.58501377 148.59640362 210.55078125 150.51757812 C211.9443558 153.30472723 211.70896027 155.62139831 211.74365234 158.73974609 C211.76774673 160.70220779 211.76774673 160.70220779 211.79232788 162.70431519 C211.80381348 164.13945874 211.81442233 165.57460954 211.82421875 167.00976562 C211.82954243 167.73108799 211.8348661 168.45241035 211.8403511 169.19559097 C211.86707428 173.01270739 211.88645276 176.82979118 211.90087891 180.64697266 C211.9175358 184.59059264 211.96232301 188.53337836 212.01325035 192.47668266 C212.04689373 195.50844286 212.05845291 198.54000417 212.06410599 201.57193375 C212.07082542 203.02563996 212.08606579 204.47933276 212.1099968 205.93285751 C212.14158273 207.96721628 212.13868829 210.00202192 212.13427734 212.03662109 C212.1423642 213.19418915 212.15045105 214.3517572 212.15878296 215.54440308 C211.55078125 218.51757812 211.55078125 218.51757812 209.17204285 220.87130737 C206.45994013 222.57463045 204.529745 223.25415429 201.390625 223.78320312 C200.43220703 223.95078125 199.47378906 224.11835938 198.48632812 224.29101562 C197.49697266 224.44828125 196.50761719 224.60554687 195.48828125 224.76757812 C194.49505859 224.9403125 193.50183594 225.11304688 192.47851562 225.29101562 C188.41667486 225.98029769 184.68366524 226.51757812 180.55078125 226.51757812 C180.40382813 227.20980469 180.256875 227.90203125 180.10546875 228.61523438 C177.54115276 239.80095758 173.75352465 250.89329212 167.3359375 260.49023438 C166.10693973 263.66361667 166.53472681 265.24404935 167.55078125 268.51757812 C170.0874984 272.71075313 173.059082 276.59799672 175.97851562 280.52929688 C176.56052734 281.34011719 177.14253906 282.1509375 177.7421875 282.98632812 C178.54958374 284.0759082 178.54958374 284.0759082 179.37329102 285.1875 C180.91544058 288.23918472 180.90707958 290.1208641 180.55078125 293.51757812 C178.84481812 295.98544312 178.84481812 295.98544312 176.42333984 298.42138672 C175.5217514 299.34188812 174.62016296 300.26238953 173.69125366 301.21078491 C172.69466838 302.19663038 171.69730399 303.18168877 170.69921875 304.16601562 C169.68138172 305.18789637 168.66443662 306.21066623 167.64834595 307.23428345 C165.51753276 309.37393318 163.37626946 311.50237872 161.22705078 313.62353516 C158.4759083 316.34049185 155.75258619 319.08350201 153.03653526 321.83548546 C150.94207491 323.95164991 148.83350444 326.05328682 146.72041702 328.15083694 C145.71052393 329.15673375 144.70505184 330.16708973 143.70417404 331.18195724 C142.30218719 332.59921736 140.87878915 333.99519954 139.45458984 335.39013672 C138.65072845 336.18922455 137.84686707 336.98831238 137.01864624 337.81161499 C133.94669066 339.93516834 132.2141206 339.95358724 128.55078125 339.51757812 C126.03710938 338.21655273 126.03710938 338.21655273 123.58203125 336.41992188 C122.68097656 335.78376953 121.77992188 335.14761719 120.8515625 334.4921875 C118.9825151 333.13276181 117.11532782 331.77077502 115.25 330.40625 C114.34894531 329.77138672 113.44789063 329.13652344 112.51953125 328.48242188 C111.70935547 327.89066162 110.89917969 327.29890137 110.06445312 326.68920898 C106.79038815 325.16315636 104.99153493 325.5922991 101.55078125 326.51757812 C99.43443576 327.51269913 97.35243093 328.58261761 95.30078125 329.70507812 C89.63373394 332.69376722 83.88511771 334.9551906 77.80078125 336.95507812 C77.01413086 337.21377686 76.22748047 337.47247559 75.41699219 337.73901367 C69.85874963 339.51757812 69.85874963 339.51757812 67.55078125 339.51757812 C67.51339844 340.05382812 67.47601563 340.59007812 67.4375 341.14257812 C66.96724918 346.74870558 66.1863875 352.2874985 65.23828125 357.83007812 C65.13281982 358.51134766 65.0273584 359.19261719 64.91870117 359.89453125 C64.09509663 364.48729791 62.86799396 367.24242279 59.55078125 370.51757812 C56.58433533 371.13903809 56.58433533 371.13903809 53.08569336 371.1328125 C51.11861671 371.14677063 51.11861671 371.14677063 49.11180115 371.16101074 C47.68389812 371.14542558 46.25600569 371.12884069 44.828125 371.11132812 C43.36129352 371.10961671 41.89445898 371.10968302 40.42762756 371.1114502 C37.35664528 371.1097979 34.28639384 371.09111623 31.21557617 371.05957031 C27.27876007 371.01985695 23.34289942 371.01552937 19.40592098 371.02303314 C16.37841534 371.02610183 13.35112465 371.0139867 10.32367134 370.99690247 C8.87200837 370.98987083 7.42032104 370.98674813 5.96864128 370.9875946 C3.94118442 370.98579786 1.91378231 370.96215789 -0.11352539 370.9375 C-1.26728165 370.92908081 -2.4210379 370.92066162 -3.60975647 370.9119873 C-6.44921875 370.51757813 -6.44921875 370.51757813 -8.27732849 369.15490723 C-11.69189362 364.38418163 -12.16933897 358.05269351 -13.07421875 352.39257812 C-13.20828125 351.59464844 -13.34234375 350.79671875 -13.48046875 349.97460938 C-14.06680943 346.39075157 -14.44921875 343.17306787 -14.44921875 339.51757812 C-15.34495605 339.37823853 -15.34495605 339.37823853 -16.25878906 339.23608398 C-23.03701924 338.0487767 -28.9356443 335.88554309 -35.19921875 333.08007812 C-36.10542969 332.68498047 -37.01164062 332.28988281 -37.9453125 331.8828125 C-41.64608099 330.25933669 -45.24131898 328.63299666 -48.77734375 326.66992188 C-51.99963339 325.28019169 -53.12667668 325.55540524 -56.44921875 326.51757812 C-58.71603999 327.80313421 -58.71603999 327.80313421 -60.8828125 329.45898438 C-62.10387695 330.33393555 -62.10387695 330.33393555 -63.34960938 331.2265625 C-65.04033514 332.46174244 -66.72784919 333.7013307 -68.41210938 334.9453125 C-69.22744141 335.52732422 -70.04277344 336.10933594 -70.8828125 336.70898438 C-71.9819397 337.51638062 -71.9819397 337.51638062 -73.10327148 338.34008789 C-76.16384329 339.87626624 -78.04693116 339.87457311 -81.44921875 339.51757812 C-83.91708374 337.81161499 -83.91708374 337.81161499 -86.35302734 335.39013672 C-87.27352875 334.48854828 -88.19403015 333.58695984 -89.14242554 332.65805054 C-90.128271 331.66146526 -91.11332939 330.66410086 -92.09765625 329.66601562 C-93.119537 328.6481786 -94.14230685 327.6312335 -95.16592407 326.61514282 C-97.3055738 324.48432963 -99.43401935 322.34306633 -101.55517578 320.19384766 C-104.27213247 317.44270517 -107.01514264 314.71938307 -109.76712608 312.00333214 C-111.88329054 309.90887178 -113.98492745 307.80030131 -116.08247757 305.6872139 C-117.08837438 304.6773208 -118.09873035 303.67184871 -119.11359787 302.67097092 C-120.53085799 301.26898407 -121.92684017 299.84558602 -123.32177734 298.42138672 C-124.12086517 297.61752533 -124.919953 296.81366394 -125.74325562 295.98544312 C-127.86680897 292.91348754 -127.88522786 291.18091748 -127.44921875 287.51757812 C-126.14819336 285.00390625 -126.14819336 285.00390625 -124.3515625 282.54882812 C-123.39733398 281.19724609 -123.39733398 281.19724609 -122.42382812 279.81835938 C-121.06440243 277.94931197 -119.70241565 276.08212469 -118.33789062 274.21679688 C-117.3855957 272.86521484 -117.3855957 272.86521484 -116.4140625 271.48632812 C-115.52642212 270.27106445 -115.52642212 270.27106445 -114.62084961 269.03125 C-113.09008526 265.74707628 -113.51219354 263.96965431 -114.44921875 260.51757812 C-115.64242783 258.00291787 -116.87282296 255.58297694 -118.19921875 253.14257812 C-122.22834993 245.44483605 -127.44921875 235.40285286 -127.44921875 226.51757812 C-128.24585938 226.46859375 -129.0425 226.41960937 -129.86328125 226.36914062 C-135.41918504 225.97711822 -140.18441141 225.38950962 -145.44921875 223.51757812 C-147.73446867 223.29993528 -150.00687615 223.14517731 -152.30078125 223.05664062 C-155.36293918 222.28831736 -156.48451511 220.97014084 -158.44921875 218.51757812 C-158.95715332 215.55786133 -158.95715332 215.55786133 -158.96679688 212.06835938 C-158.97940552 210.76020264 -158.99201416 209.4520459 -159.00500488 208.10424805 C-158.99784508 206.67951925 -158.98964109 205.25479538 -158.98046875 203.83007812 C-158.98316424 202.36563865 -158.98704713 200.90120093 -158.99206543 199.43676758 C-158.99795794 196.37010632 -158.98940621 193.30391164 -158.97070312 190.23730469 C-158.94791285 186.30944176 -158.96103738 182.38267207 -158.98499298 178.45484924 C-158.99945816 175.43159776 -158.99484186 172.4086048 -158.98448181 169.38534546 C-158.98181647 167.93728506 -158.98507757 166.48920106 -158.99440002 165.04116821 C-159.00457534 163.01638243 -158.98631207 160.99151418 -158.96679688 158.96679688 C-158.9636145 157.81526123 -158.96043213 156.66372559 -158.95715332 155.47729492 C-158.3393808 151.87755629 -157.31918225 150.71021657 -154.44921875 148.51757812 C-151.49609375 147.75976563 -151.49609375 147.75976563 -148.19921875 147.39257812 C-144.38293631 146.91394024 -140.71831536 146.42497641 -137.01171875 145.39257812 C-133.66101443 144.56959812 -130.87965578 144.34605627 -127.44921875 144.51757812 C-127.35632568 143.92041992 -127.26343262 143.32326172 -127.16772461 142.70800781 C-125.98041733 135.92977763 -123.81718372 130.03115258 -121.01171875 123.76757812 C-120.61662109 122.86136719 -120.22152344 121.95515625 -119.81445312 121.02148438 C-118.19097731 117.32071589 -116.56463729 113.7254779 -114.6015625 110.18945312 C-113.21183232 106.96716348 -113.48704587 105.8401202 -114.44921875 102.51757812 C-115.73477483 100.25075689 -115.73477483 100.25075689 -117.390625 98.08398438 C-117.97392578 97.26994141 -118.55722656 96.45589844 -119.15820312 95.6171875 C-120.39338307 93.92646174 -121.63297132 92.23894768 -122.87695312 90.5546875 C-123.45896484 89.73935547 -124.04097656 88.92402344 -124.640625 88.08398438 C-125.17888916 87.35123291 -125.71715332 86.61848145 -126.27172852 85.86352539 C-127.80790687 82.80295359 -127.80621374 80.91986572 -127.44921875 77.51757812 C-125.74325562 75.04971313 -125.74325562 75.04971313 -123.32177734 72.61376953 C-122.4201889 71.69326813 -121.51860046 70.77276672 -120.58969116 69.82437134 C-119.59310588 68.83852587 -118.59574149 67.85346748 -117.59765625 66.86914062 C-116.57981922 65.84725988 -115.56287412 64.82449002 -114.54678345 63.8008728 C-112.41597026 61.66122307 -110.27470696 59.53277753 -108.12548828 57.41162109 C-105.3743458 54.6946644 -102.65102369 51.95165424 -99.93497276 49.19967079 C-97.84051241 47.08350634 -95.73194194 44.98186943 -93.61885452 42.88431931 C-92.60896143 41.8784225 -91.60348934 40.86806652 -90.60261154 39.85319901 C-89.20062469 38.43593889 -87.77722665 37.03995671 -86.35302734 35.64501953 C-85.54916595 34.8459317 -84.74530457 34.04684387 -83.91708374 33.22354126 C-80.85390095 31.10605228 -79.10113026 31.10620825 -75.44921875 31.51757812 C-73.36279297 32.47973633 -73.36279297 32.47973633 -71.50390625 33.81835938 C-70.81941406 34.30111328 -70.13492188 34.78386719 -69.4296875 35.28125 C-68.38748047 36.04791992 -68.38748047 36.04791992 -67.32421875 36.83007812 C-66.62167969 37.32958984 -65.91914062 37.82910156 -65.1953125 38.34375 C-62.46813966 40.28988941 -59.81712433 42.18429097 -57.33203125 44.43554688 C-55.41289372 45.75663092 -55.41289372 45.75663092 -52.6953125 45.43945312 C-48.70149315 44.30522765 -45.20993068 42.62985255 -41.51171875 40.76757812 C-22.54173224 31.51757812 -22.54173224 31.51757812 -14.44921875 31.51757812 C-14.37574219 30.32261719 -14.37574219 30.32261719 -14.30078125 29.10351562 C-13.90875884 23.54761184 -13.32115025 18.78238547 -11.44921875 13.51757812 C-11.2315759 11.2323282 -11.07681794 8.95992073 -10.98828125 6.66601562 C-9.52883076 0.84936512 -5.39724981 0.01491579 0 0 Z M-70.26171875 99.45507812 C-75.16129226 105.12874782 -79.35212474 111.25554239 -83.44921875 117.51757812 C-84.00609375 118.36191406 -84.56296875 119.20625 -85.13671875 120.07617188 C-92.06208448 131.05936909 -96.20543696 143.01256426 -99.44921875 155.51757812 C-99.66449219 156.278125 -99.87976563 157.03867188 -100.1015625 157.82226562 C-108.47672526 188.26628793 -100.60839106 223.6013122 -85.44921875 250.51757812 C-82.45853916 255.45287551 -79.05331878 260.01767642 -75.44921875 264.51757812 C-74.98644531 265.1037793 -74.52367188 265.68998047 -74.046875 266.29394531 C-54.41832261 290.93602361 -24.8487602 309.76098775 6.8034668 313.80541992 C42.42107888 317.71657791 77.2042577 310.04203127 105.55078125 287.51757812 C106.09927734 287.09250977 106.64777344 286.66744141 107.21289062 286.22949219 C129.13653212 269.15064134 144.47003898 245.37303584 151.55078125 218.51757812 C152.05931641 216.84308594 152.05931641 216.84308594 152.578125 215.13476562 C157.29380612 197.59773464 157.06109598 177.24802132 153.55078125 159.51757812 C153.29361328 158.12345703 153.29361328 158.12345703 153.03125 156.70117188 C148.58659116 136.0836899 138.26833279 117.36837095 124.55078125 101.51757812 C123.8546875 100.68871094 123.15859375 99.85984375 122.44140625 99.00585938 C117.03266236 92.74360803 111.1265093 87.52676326 104.55078125 82.51757812 C103.36548828 81.60878906 103.36548828 81.60878906 102.15625 80.68164062 C48.42794716 41.29870555 -25.54783103 51.55289581 -70.26171875 99.45507812 Z " fill="#5DB6E0" transform="translate(190.44921875,22.482421875)"/>
<path d="M0 0 C25.20072412 -0.70892664 48.36039054 6.73641265 67.07421875 23.90625 C84.72982307 40.72876516 94.77761536 62.88661813 95.48681641 87.26611328 C95.77320599 111.87877126 87.78276152 134.8092173 70.70825195 152.72363281 C52.55308717 171.12852081 30.51289365 180.19859456 4.63671875 180.40625 C-18.44308879 180.22070443 -38.58483798 172.46907029 -55.80078125 157.15625 C-56.55875 156.49238281 -57.31671875 155.82851563 -58.09765625 155.14453125 C-73.45566741 140.81921395 -83.88408056 118.85032233 -84.90893555 97.95068359 C-85.60045275 71.65044963 -79.48964141 49.04774601 -61.80078125 29.15625 C-61.14851563 28.40988281 -60.49625 27.66351563 -59.82421875 26.89453125 C-46.59592393 12.70012501 -26.14714414 1.51102305 -6.6328125 0.25 C-4.42151636 0.17679847 -2.21064018 0.09087935 0 0 Z " fill="#F5F5F6" transform="translate(211.80078125,117.84375)"/>
<path d="M0 0 C1.30815674 -0.01260864 2.61631348 -0.02521729 3.96411133 -0.03820801 C5.38884012 -0.0310482 6.81356399 -0.02284422 8.23828125 -0.01367188 C9.70272072 -0.01636736 11.16715844 -0.02025026 12.6315918 -0.02526855 C15.69825305 -0.03116106 18.76444774 -0.02260934 21.83105469 -0.00390625 C25.75891761 0.01888402 29.68568731 0.00575949 33.61351013 -0.01819611 C36.63676162 -0.03266128 39.65975458 -0.02804499 42.68301392 -0.01768494 C44.13107432 -0.0150196 45.57915831 -0.0182807 47.02719116 -0.02760315 C49.05197695 -0.03777847 51.07684519 -0.0195152 53.1015625 0 C54.25309814 0.00318237 55.40463379 0.00636475 56.59106445 0.00964355 C60.19080308 0.62741607 61.35814281 1.64761462 63.55078125 4.51757812 C64.30859375 7.47070312 64.30859375 7.47070312 64.67578125 10.76757812 C65.15441914 14.58386056 65.64338297 18.24848151 66.67578125 21.95507812 C67.50495403 25.33099585 67.6187004 28.06825544 67.55078125 31.51757812 C68.24300781 31.66453125 68.93523437 31.81148437 69.6484375 31.96289062 C80.83416071 34.52720662 91.92649525 38.31483473 101.5234375 44.73242188 C104.6968198 45.96141964 106.27725247 45.53363257 109.55078125 44.51757812 C113.74395626 41.98086097 117.63119985 39.00927738 121.5625 36.08984375 C122.37332031 35.50783203 123.18414062 34.92582031 124.01953125 34.32617188 C125.10911133 33.51877563 125.10911133 33.51877563 126.22070312 32.69506836 C129.27238784 31.1529188 131.15406723 31.1612798 134.55078125 31.51757812 C137.01864624 33.22354126 137.01864624 33.22354126 139.45458984 35.64501953 C140.37509125 36.54660797 141.29559265 37.44819641 142.24398804 38.37710571 C143.2298335 39.37369099 144.21489189 40.37105539 145.19921875 41.36914062 C146.2210995 42.38697765 147.24386935 43.40392275 148.26748657 44.42001343 C150.4071363 46.55082662 152.53558185 48.69208992 154.65673828 50.84130859 C157.37369497 53.59245108 160.11670514 56.31577318 162.86868858 59.03182411 C164.98485304 61.12628447 167.08648995 63.23485494 169.18404007 65.34794235 C170.18993688 66.35783545 171.20029285 67.36330754 172.21516037 68.36418533 C173.63242049 69.76617218 175.02840267 71.18957023 176.42333984 72.61376953 C177.22242767 73.41763092 178.0215155 74.22149231 178.84481812 75.04971313 C180.96230709 78.11289592 180.96215112 79.86566662 180.55078125 83.51757812 C179.58862305 85.60400391 179.58862305 85.60400391 178.25 87.46289062 C177.76724609 88.14738281 177.28449219 88.831875 176.78710938 89.53710938 C176.27599609 90.23191406 175.76488281 90.92671875 175.23828125 91.64257812 C174.73876953 92.34511719 174.23925781 93.04765625 173.72460938 93.77148438 C171.77846996 96.49865722 169.88406841 99.14967255 167.6328125 101.63476562 C166.31172846 103.55390316 166.31172846 103.55390316 166.62890625 106.27148438 C167.76313172 110.26530372 169.43850683 113.75686619 171.30078125 117.45507812 C180.55078125 136.42506464 180.55078125 136.42506464 180.55078125 144.51757812 C181.08703125 144.55496094 181.62328125 144.59234375 182.17578125 144.63085938 C187.82006101 145.10431047 193.35821776 145.93778083 198.92578125 146.95507812 C199.61542969 147.07729736 200.30507813 147.1995166 201.015625 147.32543945 C204.45902976 147.97360481 207.58501377 148.59640362 210.55078125 150.51757812 C211.9443558 153.30472723 211.70896027 155.62139831 211.74365234 158.73974609 C211.76774673 160.70220779 211.76774673 160.70220779 211.79232788 162.70431519 C211.80381348 164.13945874 211.81442233 165.57460954 211.82421875 167.00976562 C211.82954243 167.73108799 211.8348661 168.45241035 211.8403511 169.19559097 C211.86707428 173.01270739 211.88645276 176.82979118 211.90087891 180.64697266 C211.9175358 184.59059264 211.96232301 188.53337836 212.01325035 192.47668266 C212.04689373 195.50844286 212.05845291 198.54000417 212.06410599 201.57193375 C212.07082542 203.02563996 212.08606579 204.47933276 212.1099968 205.93285751 C212.14158273 207.96721628 212.13868829 210.00202192 212.13427734 212.03662109 C212.1423642 213.19418915 212.15045105 214.3517572 212.15878296 215.54440308 C211.55078125 218.51757812 211.55078125 218.51757812 209.17204285 220.87130737 C206.45994013 222.57463045 204.529745 223.25415429 201.390625 223.78320312 C200.43220703 223.95078125 199.47378906 224.11835938 198.48632812 224.29101562 C197.49697266 224.44828125 196.50761719 224.60554687 195.48828125 224.76757812 C194.49505859 224.9403125 193.50183594 225.11304688 192.47851562 225.29101562 C188.41667486 225.98029769 184.68366524 226.51757812 180.55078125 226.51757812 C180.40382813 227.20980469 180.256875 227.90203125 180.10546875 228.61523438 C177.54115276 239.80095758 173.75352465 250.89329212 167.3359375 260.49023438 C166.10693973 263.66361667 166.53472681 265.24404935 167.55078125 268.51757812 C170.0874984 272.71075313 173.059082 276.59799672 175.97851562 280.52929688 C176.56052734 281.34011719 177.14253906 282.1509375 177.7421875 282.98632812 C178.54958374 284.0759082 178.54958374 284.0759082 179.37329102 285.1875 C180.91544058 288.23918472 180.90707958 290.1208641 180.55078125 293.51757812 C178.84481812 295.98544312 178.84481812 295.98544312 176.42333984 298.42138672 C175.5217514 299.34188812 174.62016296 300.26238953 173.69125366 301.21078491 C172.69466838 302.19663038 171.69730399 303.18168877 170.69921875 304.16601562 C169.68138172 305.18789637 168.66443662 306.21066623 167.64834595 307.23428345 C165.51753276 309.37393318 163.37626946 311.50237872 161.22705078 313.62353516 C158.4759083 316.34049185 155.75258619 319.08350201 153.03653526 321.83548546 C150.94207491 323.95164991 148.83350444 326.05328682 146.72041702 328.15083694 C145.71052393 329.15673375 144.70505184 330.16708973 143.70417404 331.18195724 C142.30218719 332.59921736 140.87878915 333.99519954 139.45458984 335.39013672 C138.65072845 336.18922455 137.84686707 336.98831238 137.01864624 337.81161499 C133.94669066 339.93516834 132.2141206 339.95358724 128.55078125 339.51757812 C126.03710938 338.21655273 126.03710938 338.21655273 123.58203125 336.41992188 C122.68097656 335.78376953 121.77992188 335.14761719 120.8515625 334.4921875 C118.9825151 333.13276181 117.11532782 331.77077502 115.25 330.40625 C114.34894531 329.77138672 113.44789063 329.13652344 112.51953125 328.48242188 C111.70935547 327.89066162 110.89917969 327.29890137 110.06445312 326.68920898 C106.79038815 325.16315636 104.99153493 325.5922991 101.55078125 326.51757812 C99.43443576 327.51269913 97.35243093 328.58261761 95.30078125 329.70507812 C89.63373394 332.69376722 83.88511771 334.9551906 77.80078125 336.95507812 C77.01413086 337.21377686 76.22748047 337.47247559 75.41699219 337.73901367 C69.85874963 339.51757812 69.85874963 339.51757812 67.55078125 339.51757812 C67.51339844 340.05382812 67.47601563 340.59007812 67.4375 341.14257812 C66.96724918 346.74870558 66.1863875 352.2874985 65.23828125 357.83007812 C65.13281982 358.51134766 65.0273584 359.19261719 64.91870117 359.89453125 C64.09509663 364.48729791 62.86799396 367.24242279 59.55078125 370.51757812 C56.58433533 371.13903809 56.58433533 371.13903809 53.08569336 371.1328125 C51.11861671 371.14677063 51.11861671 371.14677063 49.11180115 371.16101074 C47.68389812 371.14542558 46.25600569 371.12884069 44.828125 371.11132812 C43.36129352 371.10961671 41.89445898 371.10968302 40.42762756 371.1114502 C37.35664528 371.1097979 34.28639384 371.09111623 31.21557617 371.05957031 C27.27876007 371.01985695 23.34289942 371.01552937 19.40592098 371.02303314 C16.37841534 371.02610183 13.35112465 371.0139867 10.32367134 370.99690247 C8.87200837 370.98987083 7.42032104 370.98674813 5.96864128 370.9875946 C3.94118442 370.98579786 1.91378231 370.96215789 -0.11352539 370.9375 C-1.26728165 370.92908081 -2.4210379 370.92066162 -3.60975647 370.9119873 C-6.44921875 370.51757813 -6.44921875 370.51757813 -8.27732849 369.15490723 C-11.69189362 364.38418163 -12.16933897 358.05269351 -13.07421875 352.39257812 C-13.20828125 351.59464844 -13.34234375 350.79671875 -13.48046875 349.97460938 C-14.06680943 346.39075157 -14.44921875 343.17306787 -14.44921875 339.51757812 C-15.34495605 339.37823853 -15.34495605 339.37823853 -16.25878906 339.23608398 C-23.03701924 338.0487767 -28.9356443 335.88554309 -35.19921875 333.08007812 C-36.10542969 332.68498047 -37.01164062 332.28988281 -37.9453125 331.8828125 C-41.64608099 330.25933669 -45.24131898 328.63299666 -48.77734375 326.66992188 C-51.99963339 325.28019169 -53.12667668 325.55540524 -56.44921875 326.51757812 C-58.71603999 327.80313421 -58.71603999 327.80313421 -60.8828125 329.45898438 C-62.10387695 330.33393555 -62.10387695 330.33393555 -63.34960938 331.2265625 C-65.04033514 332.46174244 -66.72784919 333.7013307 -68.41210938 334.9453125 C-69.22744141 335.52732422 -70.04277344 336.10933594 -70.8828125 336.70898438 C-71.9819397 337.51638062 -71.9819397 337.51638062 -73.10327148 338.34008789 C-76.16384329 339.87626624 -78.04693116 339.87457311 -81.44921875 339.51757812 C-83.91708374 337.81161499 -83.91708374 337.81161499 -86.35302734 335.39013672 C-87.27352875 334.48854828 -88.19403015 333.58695984 -89.14242554 332.65805054 C-90.128271 331.66146526 -91.11332939 330.66410086 -92.09765625 329.66601562 C-93.119537 328.6481786 -94.14230685 327.6312335 -95.16592407 326.61514282 C-97.3055738 324.48432963 -99.43401935 322.34306633 -101.55517578 320.19384766 C-104.27213247 317.44270517 -107.01514264 314.71938307 -109.76712608 312.00333214 C-111.88329054 309.90887178 -113.98492745 307.80030131 -116.08247757 305.6872139 C-117.08837438 304.6773208 -118.09873035 303.67184871 -119.11359787 302.67097092 C-120.53085799 301.26898407 -121.92684017 299.84558602 -123.32177734 298.42138672 C-124.12086517 297.61752533 -124.919953 296.81366394 -125.74325562 295.98544312 C-127.86680897 292.91348754 -127.88522786 291.18091748 -127.44921875 287.51757812 C-126.14819336 285.00390625 -126.14819336 285.00390625 -124.3515625 282.54882812 C-123.39733398 281.19724609 -123.39733398 281.19724609 -122.42382812 279.81835938 C-121.06440243 277.94931197 -119.70241565 276.08212469 -118.33789062 274.21679688 C-117.3855957 272.86521484 -117.3855957 272.86521484 -116.4140625 271.48632812 C-115.52642212 270.27106445 -115.52642212 270.27106445 -114.62084961 269.03125 C-113.09008526 265.74707628 -113.51219354 263.96965431 -114.44921875 260.51757812 C-115.64242783 258.00291787 -116.87282296 255.58297694 -118.19921875 253.14257812 C-122.22834993 245.44483605 -127.44921875 235.40285286 -127.44921875 226.51757812 C-128.24585938 226.46859375 -129.0425 226.41960937 -129.86328125 226.36914062 C-135.41918504 225.97711822 -140.18441141 225.38950962 -145.44921875 223.51757812 C-147.73446867 223.29993528 -150.00687615 223.14517731 -152.30078125 223.05664062 C-155.36293918 222.28831736 -156.48451511 220.97014084 -158.44921875 218.51757812 C-158.95715332 215.55786133 -158.95715332 215.55786133 -158.96679688 212.06835938 C-158.97940552 210.76020264 -158.99201416 209.4520459 -159.00500488 208.10424805 C-158.99784508 206.67951925 -158.98964109 205.25479538 -158.98046875 203.83007812 C-158.98316424 202.36563865 -158.98704713 200.90120093 -158.99206543 199.43676758 C-158.99795794 196.37010632 -158.98940621 193.30391164 -158.97070312 190.23730469 C-158.94791285 186.30944176 -158.96103738 182.38267207 -158.98499298 178.45484924 C-158.99945816 175.43159776 -158.99484186 172.4086048 -158.98448181 169.38534546 C-158.98181647 167.93728506 -158.98507757 166.48920106 -158.99440002 165.04116821 C-159.00457534 163.01638243 -158.98631207 160.99151418 -158.96679688 158.96679688 C-158.9636145 157.81526123 -158.96043213 156.66372559 -158.95715332 155.47729492 C-158.3393808 151.87755629 -157.31918225 150.71021657 -154.44921875 148.51757812 C-151.49609375 147.75976563 -151.49609375 147.75976563 -148.19921875 147.39257812 C-144.38293631 146.91394024 -140.71831536 146.42497641 -137.01171875 145.39257812 C-133.66101443 144.56959812 -130.87965578 144.34605627 -127.44921875 144.51757812 C-127.35632568 143.92041992 -127.26343262 143.32326172 -127.16772461 142.70800781 C-125.98041733 135.92977763 -123.81718372 130.03115258 -121.01171875 123.76757812 C-120.61662109 122.86136719 -120.22152344 121.95515625 -119.81445312 121.02148438 C-118.19097731 117.32071589 -116.56463729 113.7254779 -114.6015625 110.18945312 C-113.21183232 106.96716348 -113.48704587 105.8401202 -114.44921875 102.51757812 C-115.73477483 100.25075689 -115.73477483 100.25075689 -117.390625 98.08398438 C-117.97392578 97.26994141 -118.55722656 96.45589844 -119.15820312 95.6171875 C-120.39338307 93.92646174 -121.63297132 92.23894768 -122.87695312 90.5546875 C-123.45896484 89.73935547 -124.04097656 88.92402344 -124.640625 88.08398438 C-125.17888916 87.35123291 -125.71715332 86.61848145 -126.27172852 85.86352539 C-127.80790687 82.80295359 -127.80621374 80.91986572 -127.44921875 77.51757812 C-125.74325562 75.04971313 -125.74325562 75.04971313 -123.32177734 72.61376953 C-122.4201889 71.69326813 -121.51860046 70.77276672 -120.58969116 69.82437134 C-119.59310588 68.83852587 -118.59574149 67.85346748 -117.59765625 66.86914062 C-116.57981922 65.84725988 -115.56287412 64.82449002 -114.54678345 63.8008728 C-112.41597026 61.66122307 -110.27470696 59.53277753 -108.12548828 57.41162109 C-105.3743458 54.6946644 -102.65102369 51.95165424 -99.93497276 49.19967079 C-97.84051241 47.08350634 -95.73194194 44.98186943 -93.61885452 42.88431931 C-92.60896143 41.8784225 -91.60348934 40.86806652 -90.60261154 39.85319901 C-89.20062469 38.43593889 -87.77722665 37.03995671 -86.35302734 35.64501953 C-85.54916595 34.8459317 -84.74530457 34.04684387 -83.91708374 33.22354126 C-80.85390095 31.10605228 -79.10113026 31.10620825 -75.44921875 31.51757812 C-73.36279297 32.47973633 -73.36279297 32.47973633 -71.50390625 33.81835938 C-70.81941406 34.30111328 -70.13492188 34.78386719 -69.4296875 35.28125 C-68.38748047 36.04791992 -68.38748047 36.04791992 -67.32421875 36.83007812 C-66.62167969 37.32958984 -65.91914062 37.82910156 -65.1953125 38.34375 C-62.46813966 40.28988941 -59.81712433 42.18429097 -57.33203125 44.43554688 C-55.41289372 45.75663092 -55.41289372 45.75663092 -52.6953125 45.43945312 C-48.70149315 44.30522765 -45.20993068 42.62985255 -41.51171875 40.76757812 C-22.54173224 31.51757812 -22.54173224 31.51757812 -14.44921875 31.51757812 C-14.37574219 30.32261719 -14.37574219 30.32261719 -14.30078125 29.10351562 C-13.90875884 23.54761184 -13.32115025 18.78238547 -11.44921875 13.51757812 C-11.2315759 11.2323282 -11.07681794 8.95992073 -10.98828125 6.66601562 C-9.52883076 0.84936512 -5.39724981 0.01491579 0 0 Z M0.55078125 12.51757812 C-1.92421875 24.39757812 -1.92421875 24.39757812 -4.44921875 36.51757812 C-7.44921875 41.51757812 -7.44921875 41.51757812 -11.1484375 42.67382812 C-12.581825 42.95612737 -14.01542104 43.23736975 -15.44921875 43.51757812 C-18.08445102 44.26195647 -20.67248463 45.12728544 -23.26171875 46.01757812 C-23.97948486 46.26386963 -24.69725098 46.51016113 -25.43676758 46.76391602 C-32.34405575 49.25897795 -38.69638995 52.65129091 -45.02856445 56.35351562 C-48.49687167 58.31180901 -50.65802082 59.52138196 -54.69921875 59.50195312 C-57.64914078 58.44601512 -59.75895831 57.21026134 -62.26171875 55.33007812 C-63.11121094 54.70617187 -63.96070312 54.08226562 -64.8359375 53.43945312 C-65.69832031 52.80523437 -66.56070313 52.17101562 -67.44921875 51.51757812 C-69.1506448 50.36151316 -70.85852816 49.2148656 -72.57421875 48.08007812 C-73.31929688 47.58636719 -74.064375 47.09265625 -74.83203125 46.58398438 C-75.36570312 46.23207031 -75.899375 45.88015625 -76.44921875 45.51757812 C-79.49503361 46.87870826 -81.58760901 48.41087908 -83.93261719 50.77392578 C-84.59299988 51.43445953 -85.25338257 52.09499329 -85.93377686 52.77554321 C-86.63496643 53.48705536 -87.33615601 54.1985675 -88.05859375 54.93164062 C-89.14880829 56.02610001 -89.14880829 56.02610001 -90.26104736 57.14266968 C-92.57851073 59.47131693 -94.88891825 61.80682639 -97.19921875 64.14257812 C-98.77037319 65.72376465 -100.34198246 67.30449937 -101.9140625 68.88476562 C-105.76440528 72.75714503 -109.60897992 76.63517984 -113.44921875 80.51757812 C-112.18654089 83.95513887 -110.73686419 86.76793641 -108.59375 89.73242188 C-108.05427734 90.50134766 -107.51480469 91.27027344 -106.95898438 92.0625 C-105.82537369 93.66051277 -104.68206724 95.25169052 -103.52929688 96.8359375 C-99.49481171 102.63763398 -99.49481171 102.63763398 -99.29296875 106.53320312 C-100.89858115 110.67741891 -102.95747997 114.46271886 -105.13671875 118.33007812 C-110.49191134 128.14155598 -114.96715157 138.31473164 -117.23046875 149.31445312 C-118.44921875 152.51757812 -118.44921875 152.51757812 -124.44921875 155.51757812 C-135.33921875 157.49757812 -135.33921875 157.49757812 -146.44921875 159.51757812 C-146.44921875 176.67757812 -146.44921875 193.83757812 -146.44921875 211.51757812 C-141.16921875 212.50757813 -135.88921875 213.49757812 -130.44921875 214.51757812 C-120.00539446 216.79247055 -120.00539446 216.79247055 -117.77734375 219.69726562 C-116.29348016 222.8482936 -115.3845283 225.89621077 -114.51171875 229.26757812 C-112.92471129 235.00933547 -111.09451751 240.19462222 -108.44921875 245.51757812 C-108.13871582 246.15083008 -107.82821289 246.78408203 -107.50830078 247.43652344 C-104.16667085 255.47858745 -104.16667085 255.47858745 -99.44921875 262.51757812 C-99.44921875 269.69280775 -103.29819314 273.94912914 -107.44921875 279.51757812 C-108.60645289 281.21820917 -109.75317341 282.92606661 -110.88671875 284.64257812 C-111.38042969 285.38765625 -111.87414062 286.13273437 -112.3828125 286.90039062 C-112.73472656 287.4340625 -113.08664063 287.96773438 -113.44921875 288.51757812 C-112.08808862 291.56339299 -110.55591779 293.65596839 -108.19287109 296.00097656 C-107.53233734 296.66135925 -106.87180359 297.32174194 -106.19125366 298.00213623 C-105.47974152 298.70332581 -104.76822937 299.40451538 -104.03515625 300.12695312 C-103.30551666 300.85376282 -102.57587708 301.58057251 -101.8241272 302.32940674 C-99.49547995 304.6468701 -97.15997049 306.95727763 -94.82421875 309.26757812 C-93.24303222 310.83873256 -91.6622975 312.41034183 -90.08203125 313.98242188 C-86.20965185 317.83276465 -82.33161704 321.67733929 -78.44921875 325.51757812 C-75.011658 324.25490026 -72.19886047 322.80522356 -69.234375 320.66210938 C-68.46544922 320.12263672 -67.69652344 319.58316406 -66.90429688 319.02734375 C-65.30628411 317.89373306 -63.71510635 316.75042661 -62.13085938 315.59765625 C-56.31217151 311.55135532 -56.31217151 311.55135532 -52.35546875 311.39648438 C-48.64554929 312.82759578 -45.32133897 314.65155897 -41.88671875 316.64257812 C-32.83423041 321.68578939 -23.40981355 324.78220118 -13.54882812 327.84912109 C-7.0479905 329.91880637 -7.0479905 329.91880637 -4.44921875 332.51757812 C-3.76318359 335.13134766 -3.76318359 335.13134766 -3.16015625 338.40039062 C-2.96212402 339.4511377 -2.7640918 340.50188477 -2.56005859 341.58447266 C-2.19581787 343.59323486 -2.19581787 343.59323486 -1.82421875 345.64257812 C-1.04046875 349.89132812 -0.25671875 354.14007813 0.55078125 358.51757812 C17.71078125 358.51757812 34.87078125 358.51757812 52.55078125 358.51757812 C54.07412617 350.09837916 54.07412617 350.09837916 55.5715332 341.67456055 C55.76706787 340.62631104 55.96260254 339.57806152 56.1640625 338.49804688 C56.45470581 336.88772583 56.45470581 336.88772583 56.7512207 335.24487305 C57.59187988 332.37739102 58.16768153 331.26270772 60.55078125 329.51757812 C63.26393851 328.60267626 65.91435088 327.80873542 68.67578125 327.08007812 C74.91913344 325.32980615 80.7471369 323.44239414 86.55078125 320.51757812 C87.90334595 319.85290503 89.25624507 319.18891227 90.609375 318.52539062 C97.51509285 315.61610285 97.51509285 315.61610285 103.55078125 311.51757812 C110.72601088 311.51757812 114.98233226 315.36655252 120.55078125 319.51757812 C122.25141229 320.67481227 123.95926974 321.82153279 125.67578125 322.95507812 C126.42085938 323.44878906 127.1659375 323.9425 127.93359375 324.45117188 C128.73410156 324.97904297 128.73410156 324.97904297 129.55078125 325.51757812 C132.59659611 324.15644799 134.68917151 322.62427717 137.03417969 320.26123047 C137.69456238 319.60069672 138.35494507 318.94016296 139.03533936 318.25961304 C139.73652893 317.54810089 140.43771851 316.83658875 141.16015625 316.10351562 C141.88696594 315.37387604 142.61377563 314.64423645 143.36260986 313.89248657 C145.68007323 311.56383932 147.99048075 309.22832986 150.30078125 306.89257812 C151.87193569 305.3113916 153.44354496 303.73065688 155.015625 302.15039062 C158.86596778 298.27801122 162.71054242 294.39997641 166.55078125 290.51757812 C165.0032662 286.47334301 163.12116269 283.1650996 160.67578125 279.58007812 C159.99773437 278.58105469 159.3196875 277.58203125 158.62109375 276.55273438 C157.21595375 274.4927461 155.77146331 272.4591619 154.29296875 270.45117188 C152.42774703 267.31040616 151.90867248 266.07170649 152.55078125 262.51757812 C153.87109375 259.89648438 153.87109375 259.89648438 155.67578125 257.08007812 C162.86524114 245.1942775 166.85434135 232.78647194 170.55078125 219.51757812 C170.88078125 218.52757812 171.21078125 217.53757813 171.55078125 216.51757812 C173.45150391 216.22753906 173.45150391 216.22753906 175.390625 215.93164062 C177.08986767 215.66877436 178.78908508 215.40574477 180.48828125 215.14257812 C181.31908203 215.01625 182.14988281 214.88992187 183.00585938 214.75976562 C183.83408203 214.63085938 184.66230469 214.50195312 185.515625 214.36914062 C186.63892212 214.19632568 186.63892212 214.19632568 187.78491211 214.02001953 C191.73002817 213.30335885 195.63658235 212.3874001 199.55078125 211.51757812 C199.55078125 194.35757813 199.55078125 177.19757813 199.55078125 159.51757812 C191.13158228 157.99423321 191.13158228 157.99423321 182.70776367 156.49682617 C181.65951416 156.3012915 180.61126465 156.10575684 179.53125 155.90429688 C177.92092896 155.61365356 177.92092896 155.61365356 176.27807617 155.31713867 C173.39991978 154.4733501 172.29063971 153.91957179 170.55078125 151.51757812 C169.77050781 149.57910156 169.77050781 149.57910156 169.19140625 147.37695312 C168.85387329 146.15262573 168.85387329 146.15262573 168.50952148 144.90356445 C168.15869507 143.59875122 168.15869507 143.59875122 167.80078125 142.26757812 C164.47741993 130.56778531 159.98696993 119.76225395 153.30078125 109.54492188 C152.19280914 106.54993477 152.72761253 104.56837405 153.55078125 101.51757812 C154.96875 99.06054688 154.96875 99.06054688 156.73828125 96.70507812 C157.67414063 95.43083984 157.67414063 95.43083984 158.62890625 94.13085938 C159.58023438 92.83728516 159.58023438 92.83728516 160.55078125 91.51757812 C161.70684622 89.81615208 162.85349377 88.10826871 163.98828125 86.39257812 C164.48199219 85.6475 164.97570312 84.90242188 165.484375 84.13476562 C166.01224609 83.33425781 166.01224609 83.33425781 166.55078125 82.51757812 C165.18965112 79.47176326 163.65748029 77.37918786 161.29443359 75.03417969 C160.63389984 74.373797 159.97336609 73.71341431 159.29281616 73.03302002 C158.22554794 71.98123566 158.22554794 71.98123566 157.13671875 70.90820312 C156.04225937 69.81798859 156.04225937 69.81798859 154.9256897 68.70574951 C152.59704245 66.38828615 150.26153299 64.07787862 147.92578125 61.76757812 C146.34459472 60.19642369 144.76386 58.62481442 143.18359375 57.05273438 C139.31121435 53.2023916 135.43317954 49.35781696 131.55078125 45.51757812 C127.50654613 47.06509317 124.19830272 48.94719668 120.61328125 51.39257812 C119.61425781 52.070625 118.61523438 52.74867187 117.5859375 53.44726562 C115.52594923 54.85240563 113.49236502 56.29689606 111.484375 57.77539062 C108.33300336 59.64691093 107.11573666 60.16676938 103.55078125 59.51757812 C100.71875 58.12695313 100.71875 58.12695313 97.73828125 56.26757812 C96.145 55.30464844 96.145 55.30464844 94.51953125 54.32226562 C93.53984375 53.72671875 92.56015625 53.13117188 91.55078125 52.51757812 C83.50105008 47.84254194 74.48257269 45.3882509 65.65234375 42.60351562 C59.74363839 40.71043527 59.74363839 40.71043527 57.55078125 38.51757812 C56.86474609 35.90380859 56.86474609 35.90380859 56.26171875 32.63476562 C56.06368652 31.58401855 55.8656543 30.53327148 55.66162109 29.45068359 C55.29738037 27.44192139 55.29738037 27.44192139 54.92578125 25.39257812 C54.14203125 21.14382812 53.35828125 16.89507812 52.55078125 12.51757812 C35.39078125 12.51757812 18.23078125 12.51757812 0.55078125 12.51757812 Z " fill="#604D9E" transform="translate(190.44921875,22.482421875)"/>
<path d="M0 0 C0.58620117 0.46277344 1.17240234 0.92554687 1.77636719 1.40234375 C26.41844549 21.03089614 45.24340963 50.60045855 49.2878418 82.25268555 C53.18821518 117.77208581 45.60033021 152.78234134 23 181 C22.53722656 181.58620117 22.07445312 182.17240234 21.59765625 182.77636719 C4.3447598 204.43599938 -19.0022426 220.18133563 -46 227 C-47.08796875 227.28488281 -48.1759375 227.56976563 -49.296875 227.86328125 C-67.23669383 232.30612371 -86.86465727 232.59047769 -105 229 C-105.92941406 228.82855469 -106.85882813 228.65710938 -107.81640625 228.48046875 C-128.43388823 224.03580991 -147.14920718 213.71755154 -163 200 C-163.82886719 199.30390625 -164.65773437 198.6078125 -165.51171875 197.890625 C-171.7739701 192.48188111 -176.99081486 186.57572805 -182 180 C-182.90878906 178.81470703 -182.90878906 178.81470703 -183.8359375 177.60546875 C-203.91073074 150.21836395 -211.59564545 115.86208813 -207.1875 82.375 C-206.81830303 80.24521066 -206.42443519 78.11947253 -206 76 C-205.82855469 75.071875 -205.65710938 74.14375 -205.48046875 73.1875 C-198.47307443 40.63702315 -177.16212306 11.79737535 -149.5546875 -6.30859375 C-103.22169123 -35.2804082 -43.4054724 -34.7646848 0 0 Z M-117 -9 C-118.05832031 -8.64035156 -119.11664063 -8.28070313 -120.20703125 -7.91015625 C-135.65509756 -2.36230172 -147.73207434 6.34533166 -160 17 C-160.78117187 17.66515625 -161.56234375 18.3303125 -162.3671875 19.015625 C-180.75705015 35.95566445 -191.13334808 60.83342552 -195 85 C-195.1340625 85.81210938 -195.268125 86.62421875 -195.40625 87.4609375 C-199.5110217 117.22053229 -191.11597908 147.31527081 -173.5 171.4375 C-172.02168952 173.30900532 -170.52235371 175.16414238 -169 177 C-167.93845703 178.28970703 -167.93845703 178.28970703 -166.85546875 179.60546875 C-148.41063286 201.04135911 -123.49419712 213.44182793 -96 218 C-95.04480469 218.18820312 -94.08960938 218.37640625 -93.10546875 218.5703125 C-63.59863636 222.65301887 -33.42619702 213.92717823 -9.5625 196.5 C-7.69099468 195.02168952 -5.83585762 193.52235371 -4 192 C-2.71029297 190.93845703 -2.71029297 190.93845703 -1.39453125 189.85546875 C12.75624028 177.67922348 23.03467905 162.24499536 30 145 C30.35707031 144.12085938 30.71414063 143.24171875 31.08203125 142.3359375 C40.64530865 117.47857976 40.8263444 89.05941138 32 64 C31.47792969 62.42992187 31.47792969 62.42992187 30.9453125 60.828125 C26.34258752 47.81352333 19.00431041 36.40575951 10 26 C9.33742188 25.19304687 8.67484375 24.38609375 7.9921875 23.5546875 C-6.39766397 6.61608005 -25.93675356 -4.59884913 -47 -11 C-48.15628906 -11.35835937 -49.31257812 -11.71671875 -50.50390625 -12.0859375 C-71.94776825 -17.69248913 -96.25979235 -16.32157392 -117 -9 Z " fill="#5F4B9C" transform="translate(296,106)"/>
<path d="M0 0 C1.05896484 -0.00128906 2.11792969 -0.00257812 3.20898438 -0.00390625 C4.30146484 -0.00003906 5.39394531 0.00382812 6.51953125 0.0078125 C8.12924805 0.00201172 8.12924805 0.00201172 9.77148438 -0.00390625 C19.77804279 0.0082009 29.36798798 0.29483975 38.89453125 3.5703125 C39.65193604 3.8283667 40.40934082 4.0864209 41.18969727 4.35229492 C54.57367286 9.15938087 66.90817207 16.45467264 77.33203125 26.1328125 C78.25371094 26.97457031 79.17539062 27.81632812 80.125 28.68359375 C97.76863474 45.49980286 109.7204554 69.38642427 110.66796875 93.97265625 C110.69772293 96.00503225 110.71023698 98.03772124 110.70703125 100.0703125 C110.70541992 101.15062744 110.70380859 102.23094238 110.70214844 103.34399414 C110.49797267 116.95471104 108.37607692 130.81225787 102.33203125 143.1328125 C101.90148437 144.08027344 101.4709375 145.02773437 101.02734375 146.00390625 C90.32350839 168.71339479 69.89968962 189.28476076 45.96899414 197.99267578 C43.45545053 198.81276739 40.93160738 199.5763869 38.39453125 200.3203125 C37.55212891 200.58005859 36.70972656 200.83980469 35.84179688 201.10742188 C11.0588904 208.490782 -16.97034471 205.19347802 -39.66796875 193.1328125 C-48.57426719 188.17848283 -56.35462265 182.2488561 -63.66796875 175.1328125 C-64.3021875 174.54886719 -64.93640625 173.96492187 -65.58984375 173.36328125 C-72.77064975 166.57964373 -77.73929032 158.36515884 -82.30859375 149.67578125 C-83.62091876 147.13656507 -83.62091876 147.13656507 -85.14453125 144.84765625 C-87.18608882 141.20949596 -88.47268431 137.45539663 -89.79296875 133.5078125 C-90.05722656 132.76402344 -90.32148437 132.02023438 -90.59375 131.25390625 C-98.91390476 106.5468477 -93.8482466 78.21957429 -83.296875 55.1328125 C-71.10284304 31.36654058 -49.50913986 12.82400695 -24.15234375 4.62890625 C-16.1740413 2.17593673 -8.41033097 0.0100285 0 0 Z M-59.21875 41.26953125 C-76.96597627 62.01708604 -82.7943928 85.32863804 -81.66796875 112.1328125 C-79.60968134 135.29505947 -67.21289883 157.12507558 -49.66796875 172.1328125 C-35.47755501 182.9810051 -18.82701422 191.53168548 -0.66796875 192.1328125 C0.58628906 192.184375 1.84054688 192.2359375 3.1328125 192.2890625 C27.28607585 192.96852281 50.59237745 186.23496698 68.70703125 169.7578125 C87.7156129 151.73070331 97.81857378 130.19358859 98.61523438 103.9128418 C98.94375292 79.74756537 90.54301177 57.08895637 73.84106445 39.56542969 C55.68589967 21.16054169 33.64570615 12.09046794 7.76953125 11.8828125 C-18.40359489 12.0932262 -41.01945284 22.42549248 -59.21875 41.26953125 Z " fill="#614C9C" transform="translate(208.66796875,105.8671875)"/>
<path d="M0 0 C1.10794922 -0.04125 2.21589844 -0.0825 3.35742188 -0.125 C11.06554639 -0.19793317 16.24768477 1.12278602 21.9375 6.5 C25.86350236 11.78927013 26.86466686 17.009832 25.9375 23.5 C24.16823787 29.91357521 20.34213066 33.82775575 14.9375 37.5 C11.43023515 38.82363727 7.90021063 38.59962711 4.1875 38.5625 C3.01703125 38.55347656 1.8465625 38.54445312 0.640625 38.53515625 C-0.25140625 38.52355469 -1.1434375 38.51195312 -2.0625 38.5 C-2.04155273 39.14549805 -2.02060547 39.79099609 -1.99902344 40.45605469 C-1.91575795 43.38721068 -1.86380794 46.31811777 -1.8125 49.25 C-1.76222656 50.77367187 -1.76222656 50.77367187 -1.7109375 52.328125 C-1.61213627 59.83701821 -1.61213627 59.83701821 -3.8828125 63.1796875 C-6.79256574 64.9422262 -8.72150019 64.93578258 -12.0625 64.5 C-14.73443902 61.82806098 -14.31566128 60.52973245 -14.32128906 56.796875 C-14.32759338 55.60223633 -14.33389771 54.40759766 -14.34039307 53.17675781 C-14.3363446 51.88092773 -14.33229614 50.58509766 -14.328125 49.25 C-14.32947178 47.91243418 -14.33141243 46.57486883 -14.33392334 45.23730469 C-14.336874 42.43289534 -14.33257894 39.62861331 -14.32324219 36.82421875 C-14.31184754 33.22595078 -14.31840734 29.62798114 -14.33038712 26.02972412 C-14.33760736 23.26739242 -14.33531706 20.50513167 -14.33013153 17.74279785 C-14.32814475 15.76961067 -14.33422842 13.79642074 -14.34039307 11.82324219 C-14.33408875 10.62860352 -14.32778442 9.43396484 -14.32128906 8.203125 C-14.31969788 7.14770508 -14.31810669 6.09228516 -14.31646729 5.00488281 C-13.61501472 -1.91355342 -5.26449993 0.04783191 0 0 Z " fill="#614E9E" transform="translate(224.0625,175.5)"/>
<path d="M0 0 C3.0625 0.3125 3.0625 0.3125 4.55517578 1.37744141 C6.73654029 4.17781314 7.93455969 7.31789729 9.2421875 10.5859375 C9.53682892 11.30552643 9.83147034 12.02511536 10.13504028 12.76651001 C11.07629881 15.07068525 12.00686932 17.37901488 12.9375 19.6875 C13.55532486 21.20209424 14.1738082 22.71642005 14.79296875 24.23046875 C16.29023258 27.90035416 17.77154455 31.57632814 19.24157715 35.25720215 C19.77406095 36.59035155 20.30822144 37.92283294 20.84436035 39.2545166 C21.55112001 41.01345701 22.24847119 42.7761692 22.9453125 44.5390625 C23.33348145 45.51697754 23.72165039 46.49489258 24.12158203 47.50244141 C26.62456066 54.97760592 26.62456066 54.97760592 25.0625 58.6875 C22.13199364 61.06853642 19.71542086 60.58819214 16.0625 60.3125 C12.56105878 54.45831172 10.03324988 48.8470917 8.0625 42.3125 C2.7825 42.3125 -2.4975 42.3125 -7.9375 42.3125 C-9.78578095 47.11053342 -9.78578095 47.11053342 -11.61645508 51.9152832 C-14.14024505 58.34487709 -14.14024505 58.34487709 -16.9375 60.3125 C-19.9375 60.75 -19.9375 60.75 -22.9375 60.3125 C-24.875 58.75 -24.875 58.75 -25.9375 56.3125 C-25.54277993 51.43654613 -24.43014754 47.72957291 -22.25 43.375 C-19.86858696 38.42461634 -17.80896369 33.4755854 -15.9375 28.3125 C-13.66453145 22.07027295 -11.09888821 16.08056832 -8.234375 10.08203125 C-6.91231094 7.34609686 -6.91231094 7.34609686 -5.890625 4.57421875 C-4.47350747 1.21146855 -3.67538621 0.39099853 0 0 Z " fill="#624E9E" transform="translate(173.9375,179.6875)"/>
<path d="M0 0 C3.5625 0.375 3.5625 0.375 5.26089478 2.05273438 C6.84467016 4.87843534 6.94276712 6.67606185 6.95068359 9.90625 C6.96014008 11.01419922 6.96959656 12.12214844 6.9793396 13.26367188 C6.97326691 14.45541016 6.96719421 15.64714844 6.9609375 16.875 C6.96524277 18.71674805 6.96524277 18.71674805 6.96963501 20.59570312 C6.97167631 23.19141094 6.96614193 25.78713412 6.95361328 28.3828125 C6.93756166 32.35972435 6.95346091 36.33561982 6.97265625 40.3125 C6.97067383 42.83333558 6.96683019 45.35417053 6.9609375 47.875 C6.96701019 49.06673828 6.97308289 50.25847656 6.9793396 51.48632812 C6.96988312 52.59427734 6.96042664 53.70222656 6.95068359 54.84375 C6.94829681 55.81763672 6.94591003 56.79152344 6.94345093 57.79492188 C6.4940165 60.8388203 5.74111076 62.21788058 3.5625 64.375 C0 64.8125 0 64.8125 -3.4375 64.375 C-5.72524309 60.94338536 -5.69008619 59.68654674 -5.69628906 55.65014648 C-5.70259338 54.4756041 -5.70889771 53.30106171 -5.71539307 52.09092712 C-5.7113446 50.82213211 -5.70729614 49.5533371 -5.703125 48.24609375 C-5.70599518 46.29522606 -5.70599518 46.29522606 -5.70892334 44.3049469 C-5.71187077 41.55359137 -5.70758865 38.8023658 -5.69824219 36.05102539 C-5.68683649 32.52116548 -5.69341635 28.99160933 -5.70538712 25.46176052 C-5.71434198 22.0981804 -5.70807726 18.73468251 -5.703125 15.37109375 C-5.70717346 14.10027451 -5.71122192 12.82945526 -5.71539307 11.52012634 C-5.70908875 10.34873611 -5.70278442 9.17734589 -5.69628906 7.97045898 C-5.69469788 6.93582016 -5.69310669 5.90118134 -5.69146729 4.83518982 C-5.27106378 0.76272657 -3.94155936 0.42998829 0 0 Z " fill="#624E9E" transform="translate(268.4375,175.625)"/>
<path d="M0 0 C11.34246575 -0.49315068 11.34246575 -0.49315068 14.390625 1.79296875 C16 4 16 4 16 7.5625 C14.88287774 11.40260778 14.38169332 12.09060854 11 14 C7.28911458 14.38871006 3.74349839 14.13369637 0 14 C0 9.38 0 4.76 0 0 Z " fill="#F4F4F5" transform="translate(222,188)"/>
<path d="M0 0 C0.66 0 1.32 0 2 0 C2.33 1.98 2.66 3.96 3 6 C1.68 6 0.36 6 -1 6 C-0.67 4.02 -0.34 2.04 0 0 Z " fill="#E7E5ED" transform="translate(173,203)"/>
</svg>
