<?xml version="1.0" encoding="UTF-8"?>
<svg version="1.1" xmlns="http://www.w3.org/2000/svg" width="388" height="346">
<path d="M0 0 C128.04 0 256.08 0 388 0 C388 114.18 388 228.36 388 346 C259.96 346 131.92 346 0 346 C0 231.82 0 117.64 0 0 Z " fill="#FDFDFD" transform="translate(0,0)"/>
<path d="M0 0 C4.8440307 2.58709126 8.68939177 5.25111016 12.71875 9.0390625 C13.53200745 9.80278671 13.53200745 9.80278671 14.36169434 10.5819397 C22.03181696 17.84291318 29.48304824 25.33400252 36.94140625 32.81103516 C39.51968793 35.39472926 42.10334169 37.97296623 44.6875 40.55078125 C46.34407113 42.20801239 48.00033247 43.86555327 49.65625 45.5234375 C50.42086548 46.28602875 51.18548096 47.04862 51.9732666 47.83432007 C54.96534238 50.8395234 57.83926902 53.80288356 60.52148438 57.09228516 C65.37693323 62.78854165 70.83055064 66.97649088 77.140625 70.97998047 C85.18246622 76.09091075 92.69452385 81.75970903 100 87.875 C100.66588512 88.43184856 101.33177025 88.98869713 102.01783371 89.56241989 C119.46280297 104.47545464 129.0250572 120.44191273 131.05438805 143.50050354 C132.30135332 159.66332315 132.09025157 175.87462411 131.5625 192.0625 C131.52672096 193.18257336 131.52672096 193.18257336 131.49021912 194.32527447 C130.85001317 213.93329025 129.49651902 233.42273074 128 253 C109.52 253 91.04 253 72 253 C72 268.84 72 284.68 72 301 C55.56977026 301.33973393 39.14257623 301.6155463 22.70979977 301.77718258 C15.07827714 301.85425687 7.44910467 301.95915204 -0.1809082 302.1315918 C-6.83810727 302.28197295 -13.49360383 302.3780711 -20.15245432 302.41132742 C-23.67344025 302.43074739 -27.18956008 302.4757292 -30.70897102 302.58595085 C-54.91767395 303.31507093 -54.91767395 303.31507093 -63.11465359 295.77499485 C-65.48473067 293.23202928 -67.6268036 290.60144076 -69.66464806 287.78652382 C-71.54116233 285.27599657 -73.73378683 283.15684439 -76 281 C-80.84375 276.15625 -85.6875 271.3125 -90.53125 266.46875 C-91.70892944 265.29203735 -91.70892944 265.29203735 -92.91040039 264.09155273 C-94.51667403 262.48377772 -96.11704154 260.87010042 -97.71484375 259.25390625 C-100.43140514 256.57449442 -103.24180509 254.00581245 -106.0625 251.4375 C-113.71687172 244.41276562 -121.35340866 237.299229 -128.09960938 229.38500977 C-132.25045803 224.62725524 -136.73006812 220.25128895 -141.2578125 215.85546875 C-143.03590993 214.10949117 -144.81323026 212.36272191 -146.58984375 210.61523438 C-149.35849259 207.89592925 -152.13121003 205.18147945 -154.91748047 202.48022461 C-157.62840701 199.84849636 -160.31936201 197.19762915 -163.0078125 194.54296875 C-163.83499786 193.74988815 -164.66218323 192.95680756 -165.51443481 192.13969421 C-172.99819536 184.69134731 -177.70014782 176.64040984 -177.78515625 165.91796875 C-177.65784864 155.99055938 -173.80589378 148.04256843 -169.4375 139.3125 C-168.72292034 137.82369758 -168.01131989 136.33346149 -167.30273438 134.84179688 C-164.6580263 129.30811673 -161.92276274 123.82104977 -159.15673828 118.34716797 C-154.8582391 109.83068384 -150.87407357 101.21450367 -147 92.5 C-143.02951748 83.56863 -138.94717323 74.74138695 -134.48657227 66.04248047 C-133.13405645 63.27436549 -132.01025974 60.51004509 -130.9375 57.625 C-127.82983025 51.43993001 -121.92177237 48.98776169 -115.98974609 46.01953125 C-113.28087291 44.63152457 -110.65368151 43.11510979 -108.01635742 41.59667969 C-102.54949982 38.45384885 -97.0353652 35.47040031 -91.375 32.6875 C-78.8319585 26.51643839 -66.59228786 19.69668452 -54.5 12.6875 C-47.80171523 8.82434056 -40.94280637 5.39809405 -34 2 C-32.4366772 1.20995938 -30.87401668 0.41860445 -29.3125 -0.375 C-20.28305375 -4.80453967 -9.04846112 -4.38514933 0 0 Z " fill="#1565C0" transform="translate(204,26)"/>
<path d="M0 0 C0.99 0.66 1.98 1.32 3 2 C3 2.66 3 3.32 3 4 C3.99 4.33 4.98 4.66 6 5 C6 5.66 6 6.32 6 7 C6.99 7.33 7.98 7.66 9 8 C9 8.66 9 9.32 9 10 C9.99 10.33 10.98 10.66 12 11 C12 11.66 12 12.32 12 13 C12.99 13.33 13.98 13.66 15 14 C15 14.66 15 15.32 15 16 C16.485 16.495 16.485 16.495 18 17 C18 17.66 18 18.32 18 19 C19.485 19.495 19.485 19.495 21 20 C21 20.66 21 21.32 21 22 C22.485 22.495 22.485 22.495 24 23 C24 23.66 24 24.32 24 25 C25.485 25.495 25.485 25.495 27 26 C27 26.66 27 27.32 27 28 C28.485 28.495 28.485 28.495 30 29 C30 29.66 30 30.32 30 31 C31.485 31.495 31.485 31.495 33 32 C33 32.66 33 33.32 33 34 C34.485 34.495 34.485 34.495 36 35 C36 35.66 36 36.32 36 37 C37.485 37.495 37.485 37.495 39 38 C39 38.66 39 39.32 39 40 C40.485 40.495 40.485 40.495 42 41 C42 41.66 42 42.32 42 43 C43.485 43.495 43.485 43.495 45 44 C45 44.66 45 45.32 45 46 C46.485 46.495 46.485 46.495 48 47 C48 47.66 48 48.32 48 49 C49.485 49.495 49.485 49.495 51 50 C51 50.66 51 51.32 51 52 C52.485 52.495 52.485 52.495 54 53 C54 53.66 54 54.32 54 55 C55.485 55.495 55.485 55.495 57 56 C57 56.66 57 57.32 57 58 C58.485 58.495 58.485 58.495 60 59 C60 59.66 60 60.32 60 61 C61.485 61.495 61.485 61.495 63 62 C63 62.66 63 63.32 63 64 C64.485 64.495 64.485 64.495 66 65 C66 65.66 66 66.32 66 67 C67.485 67.495 67.485 67.495 69 68 C69 68.66 69 69.32 69 70 C70.485 70.495 70.485 70.495 72 71 C72 71.66 72 72.32 72 73 C73.485 73.495 73.485 73.495 75 74 C75 74.66 75 75.32 75 76 C76.485 76.495 76.485 76.495 78 77 C78 77.66 78 78.32 78 79 C78.99 79.33 79.98 79.66 81 80 C81 80.66 81 81.32 81 82 C81.99 82.33 82.98 82.66 84 83 C84 83.66 84 84.32 84 85 C84.99 85.33 85.98 85.66 87 86 C87 86.66 87 87.32 87 88 C87.99 88.33 88.98 88.66 90 89 C90 89.66 90 90.32 90 91 C90.99 91.33 91.98 91.66 93 92 C93 92.66 93 93.32 93 94 C93.99 94.33 94.98 94.66 96 95 C96 95.66 96 96.32 96 97 C96.99 97.33 97.98 97.66 99 98 C99 98.66 99 99.32 99 100 C99.99 100.33 100.98 100.66 102 101 C102 101.66 102 102.32 102 103 C102.99 103.33 103.98 103.66 105 104 C105 104.66 105 105.32 105 106 C105.99 106.33 106.98 106.66 108 107 C108 107.66 108 108.32 108 109 C108.99 109.33 109.98 109.66 111 110 C111 110.66 111 111.32 111 112 C111.99 112.33 112.98 112.66 114 113 C114 113.66 114 114.32 114 115 C114.99 115.33 115.98 115.66 117 116 C117 116.66 117 117.32 117 118 C117.99 118.33 118.98 118.66 120 119 C120 119.66 120 120.32 120 121 C120.99 121.33 121.98 121.66 123 122 C123 122.66 123 123.32 123 124 C123.99 124.33 124.98 124.66 126 125 C126 125.66 126 126.32 126 127 C126.99 127.33 127.98 127.66 129 128 C129 128.66 129 129.32 129 130 C129.99 130.33 130.98 130.66 132 131 C132 131.66 132 132.32 132 133 C132.99 133.33 133.98 133.66 135 134 C135 134.66 135 135.32 135 136 C135.99 136.33 136.98 136.66 138 137 C138 137.66 138 138.32 138 139 C138.99 139.33 139.98 139.66 141 140 C141 140.66 141 141.32 141 142 C141.99 142.33 142.98 142.66 144 143 C144 143.66 144 144.32 144 145 C144.99 145.33 145.98 145.66 147 146 C147 146.66 147 147.32 147 148 C147.99 148.33 148.98 148.66 150 149 C150 149.66 150 150.32 150 151 C150.99 151.33 151.98 151.66 153 152 C153 152.66 153 153.32 153 154 C153.99 154.33 154.98 154.66 156 155 C156 155.66 156 156.32 156 157 C156.99 157.33 157.98 157.66 159 158 C159 158.66 159 159.32 159 160 C159.99 160.33 160.98 160.66 162 161 C162 161.66 162 162.32 162 163 C162.99 163.33 163.98 163.66 165 164 C165 164.66 165 165.32 165 166 C165.99 166.33 166.98 166.66 168 167 C168 167.66 168 168.32 168 169 C168.99 169.33 169.98 169.66 171 170 C171 170.66 171 171.32 171 172 C171.99 172.33 172.98 172.66 174 173 C174 173.66 174 174.32 174 175 C174.99 175.33 175.98 175.66 177 176 C177 176.66 177 177.32 177 178 C177.99 178.33 178.98 178.66 180 179 C180 179.66 180 180.32 180 181 C180.99 181.33 181.98 181.66 183 182 C183 182.66 183 183.32 183 184 C183.99 184.33 184.98 184.66 186 185 C186 185.66 186 186.32 186 187 C186.99 187.33 187.98 187.66 189 188 C189 188.66 189 189.32 189 190 C189.99 190.33 190.98 190.66 192 191 C192 191.66 192 192.32 192 193 C192.99 193.33 193.98 193.66 195 194 C195 194.66 195 195.32 195 196 C195.99 196.33 196.98 196.66 198 197 C200.14782833 200.22174249 200.24649148 201.0433731 200.22705078 204.74682617 C200.22682419 206.18798042 200.22682419 206.18798042 200.22659302 207.6582489 C200.21627045 208.69270645 200.20594788 209.727164 200.1953125 210.79296875 C200.1924826 211.85413406 200.18965271 212.91529938 200.18673706 214.00862122 C200.17553184 217.40169497 200.15042647 220.79450587 200.125 224.1875 C200.11497065 226.48632432 200.10584472 228.78515276 200.09765625 231.08398438 C200.07559141 236.72274611 200.04211044 242.36135428 200 248 C183.57047603 248.35173648 167.14218836 248.61555012 150.70979977 248.77718258 C143.07827714 248.85425687 135.44910467 248.95915204 127.8190918 249.1315918 C121.16189273 249.28197295 114.50639617 249.3780711 107.84754568 249.41132742 C104.32655975 249.43074739 100.81043992 249.4757292 97.29102898 249.58595085 C73.08232605 250.31507093 73.08232605 250.31507093 64.88534641 242.77499485 C62.51526933 240.23202928 60.3731964 237.60144076 58.33535194 234.78652382 C56.45883767 232.27599657 54.26621317 230.15684439 52 228 C44.734375 220.734375 44.734375 220.734375 37.46875 213.46875 C36.68363037 212.6842749 35.89851074 211.8997998 35.08959961 211.09155273 C33.48332597 209.48377772 31.88295846 207.87010042 30.28515625 206.25390625 C27.56859486 203.57449442 24.75819491 201.00581245 21.9375 198.4375 C14.28312828 191.41276562 6.64659134 184.299229 -0.09960938 176.38500977 C-4.25045803 171.62725524 -8.73006812 167.25128895 -13.2578125 162.85546875 C-15.03590993 161.10949117 -16.81323026 159.36272191 -18.58984375 157.61523438 C-21.35849259 154.89592925 -24.13121003 152.18147945 -26.91748047 149.48022461 C-29.62840701 146.84849636 -32.31936201 144.19762915 -35.0078125 141.54296875 C-35.83499786 140.74988815 -36.66218323 139.95680756 -37.51443481 139.13969421 C-44.99819536 131.69134731 -49.70014782 123.64040984 -49.78515625 112.91796875 C-49.65784864 102.99055938 -45.80589378 95.04256843 -41.4375 86.3125 C-40.72292034 84.82369758 -40.01131989 83.33346149 -39.30273438 81.84179688 C-36.6580263 76.30811673 -33.92276274 70.82104977 -31.15673828 65.34716797 C-26.8582391 56.83068384 -22.87407357 48.21450367 -19 39.5 C-14.56977583 29.53446785 -9.94407009 19.72228847 -5 10 C-4.01939329 8.04238735 -3.03995894 6.08418626 -2.0625 4.125 C-1.375 2.75 -0.6875 1.375 0 0 Z " fill="#42A4F4" transform="translate(76,79)"/>
<path d="M0 0 C57.75 0 115.5 0 175 0 C175 15.84 175 31.68 175 48 C158.56977026 48.33973393 142.14257623 48.6155463 125.70979977 48.77718258 C118.07827714 48.85425687 110.44910467 48.95915204 102.8190918 49.1315918 C96.16189273 49.28197295 89.50639617 49.3780711 82.84754568 49.41132742 C79.32655975 49.43074739 75.81043992 49.4757292 72.29102898 49.58595085 C48.08232605 50.31507093 48.08232605 50.31507093 39.88534641 42.77499485 C37.51526933 40.23202928 35.3731964 37.60144076 33.33535194 34.78652382 C31.45883767 32.27599657 29.26621317 30.15684439 27 28 C12.46875 13.46875 12.46875 13.46875 10.1015625 11.09765625 C8.87253897 9.87091715 7.63986921 8.64777452 6.3984375 7.43359375 C3.96617149 5.05230337 2.07129835 2.76173113 0 0 Z " fill="#85CBF8" transform="translate(101,279)"/>
<path d="M0 0 C1.95798771 1.60887735 3.85713054 3.29111028 5.703125 5.02734375 C6.24447083 5.53587387 6.78581665 6.04440399 7.34356689 6.56834412 C15.08522302 13.89656218 22.62429387 21.43827225 30.16113281 28.97583008 C32.7817095 31.59418259 35.41024118 34.20438127 38.0390625 36.81445312 C39.7088204 38.48128306 41.37810919 40.14858307 43.046875 41.81640625 C43.83213562 42.59448135 44.61739624 43.37255646 45.42645264 44.17420959 C46.14520569 44.89603928 46.86395874 45.61786896 47.60449219 46.36157227 C48.23812683 46.99378189 48.87176147 47.62599152 49.52459717 48.27735901 C51 50 51 50 52 53 C51.33486263 52.7884537 50.66972527 52.57690741 49.98443222 52.35895061 C40.83646606 49.73556205 32.08158031 49.55752528 22.66503906 49.56762695 C20.94899803 49.55859305 19.23296341 49.54826188 17.51693726 49.53674316 C12.89381095 49.50933809 8.27080762 49.49991124 3.64761066 49.49388909 C-1.19707226 49.48446218 -6.04166486 49.45825551 -10.8862915 49.43388367 C-20.04444296 49.39033321 -29.20257677 49.36171605 -38.36080003 49.33856028 C-48.79382211 49.31144699 -59.22675281 49.2675394 -69.65970945 49.22227156 C-91.1064237 49.12958945 -112.55316531 49.05783371 -134 49 C-130.84628512 46.43528297 -127.87988488 44.24983133 -124.25390625 42.40625 C-123.34535889 41.93944824 -122.43681152 41.47264648 -121.50073242 40.99169922 C-120.53111572 40.49943848 -119.56149902 40.00717773 -118.5625 39.5 C-116.48611217 38.43137043 -114.41061287 37.36101291 -112.3359375 36.2890625 C-110.75377441 35.47163574 -110.75377441 35.47163574 -109.13964844 34.63769531 C-104.29037261 32.10822858 -99.48538768 29.50035575 -94.6875 26.875 C-93.7807251 26.37911377 -92.8739502 25.88322754 -91.93969727 25.37231445 C-87.65423764 23.0223981 -83.37798962 20.65690201 -79.11328125 18.26953125 C-71.28435595 13.88696837 -63.44271718 9.6723627 -55.3828125 5.7265625 C-51.7171134 3.85561677 -48.17683897 1.82554071 -44.625 -0.25 C-29.36980413 -9.02111615 -15.23642288 -9.64651687 0 0 Z " fill="#43A5F5" transform="translate(211,30)"/>
<path d="M0 0 C0.66 0 1.32 0 2 0 C2.00146656 0.84022611 2.00293312 1.68045221 2.00444412 2.54613972 C2.04154735 23.02087671 2.1006087 43.49544862 2.18390274 63.97005177 C2.22365798 73.87155734 2.25606832 83.77298384 2.27099609 93.67456055 C2.28403084 102.30799415 2.31104197 110.9412535 2.35461307 119.57458895 C2.37718692 124.14299129 2.39291313 128.71117905 2.39188385 133.27964211 C2.39113482 137.58648593 2.40918243 141.89285614 2.44116783 146.19957733 C2.44963228 147.77362849 2.45144042 149.34773298 2.44580269 150.9217968 C2.41776367 159.9595951 3.1183491 167.70041373 7 176 C6.34 176 5.68 176 5 176 C3.59890747 174.57148743 3.59890747 174.57148743 1.95361328 172.5715332 C-2.18354313 167.70945735 -6.68030615 163.29960101 -11.2578125 158.85546875 C-13.03590993 157.10949117 -14.81323026 155.36272191 -16.58984375 153.61523438 C-19.35849259 150.89592925 -22.13121003 148.18147945 -24.91748047 145.48022461 C-27.62840701 142.84849636 -30.31936201 140.19762915 -33.0078125 137.54296875 C-33.83499786 136.74988815 -34.66218323 135.95680756 -35.51443481 135.13969421 C-42.99819536 127.69134731 -47.70014782 119.64040984 -47.78515625 108.91796875 C-47.65784864 98.99055938 -43.80589378 91.04256843 -39.4375 82.3125 C-38.72292034 80.82369758 -38.01131989 79.33346149 -37.30273438 77.84179688 C-34.6580263 72.30811673 -31.92276274 66.82104977 -29.15673828 61.34716797 C-24.8582391 52.83068384 -20.87407357 44.21450367 -17 35.5 C-12.56976549 25.53444459 -7.94381699 15.72243217 -3 6 C-1.99862219 4.0006895 -0.99819563 2.00090117 0 0 Z " fill="#1665C0" transform="translate(74,83)"/>
<path d="M0 0 C2.64 0 5.28 0 8 0 C8 114.18 8 228.36 8 346 C5.36 346 2.72 346 0 346 C0 231.82 0 117.64 0 0 Z " fill="#F5F5F5" transform="translate(380,0)"/>
<path d="M0 0 C0.99 0.99 1.98 1.98 3 3 C2.34 3 1.68 3 1 3 C1 57.78 1 112.56 1 169 C0.67 169 0.34 169 0 169 C0 114.55 0 60.1 0 4 C-0.66 3.67 -1.32 3.34 -2 3 C-1.34 2.01 -0.68 1.02 0 0 Z " fill="#3C9CED" transform="translate(76,79)"/>
<path d="M0 0 C0.66 0 1.32 0 2 0 C2 52.8 2 105.6 2 160 C1.67 160 1.34 160 1 160 C0.67 108.52 0.34 57.04 0 4 C-0.99 4.495 -0.99 4.495 -2 5 C-1.34 3.35 -0.68 1.7 0 0 Z " fill="#1D6FC9" transform="translate(74,83)"/>
</svg>
