<?xml version="1.0" encoding="UTF-8"?>
<svg version="1.1" xmlns="http://www.w3.org/2000/svg" width="436" height="421">
<path d="M0 0 C143.88 0 287.76 0 436 0 C436 138.93 436 277.86 436 421 C292.12 421 148.24 421 0 421 C0 282.07 0 143.14 0 0 Z " fill="#020201" transform="translate(0,0)"/>
<path d="M0 0 C143.88 0 287.76 0 436 0 C436 138.93 436 277.86 436 421 C292.12 421 148.24 421 0 421 C0 282.07 0 143.14 0 0 Z M39 65 C37.96793458 68.09619626 37.86722326 70.24774297 37.85473633 73.49365234 C37.84835648 74.61847015 37.84197662 75.74328796 37.83540344 76.90219116 C37.83429062 78.11782745 37.8331778 79.33346375 37.83203125 80.5859375 C37.82870285 81.83500885 37.82537445 83.0840802 37.82194519 84.3710022 C37.81687812 87.01560015 37.81410471 89.66009536 37.81469727 92.3046875 C37.81479879 95.68626114 37.80115413 99.06762436 37.78392506 102.44914818 C37.77010226 105.68223669 37.7707155 108.91532345 37.76953125 112.1484375 C37.76234573 113.36002533 37.75516022 114.57161316 37.74775696 115.81991577 C37.75083359 116.9510379 37.75391022 118.08216003 37.75708008 119.24755859 C37.75565506 120.2400058 37.75423004 121.232453 37.75276184 122.25497437 C38.28041967 128.11343191 40.98994598 131.8076708 45 136 C50.41524618 139.86803298 55.58671432 139.2346324 62 139 C62 142.96 62 146.92 62 151 C60.329375 150.9175 58.65875 150.835 56.9375 150.75 C50.63371048 150.76618431 47.06558571 151.94239759 42.5 156.49609375 C38.73172054 160.78893484 37.87617827 163.91993655 37.85473633 169.49365234 C37.84835648 170.61847015 37.84197662 171.74328796 37.83540344 172.90219116 C37.83429062 174.11782745 37.8331778 175.33346375 37.83203125 176.5859375 C37.82870285 177.83500885 37.82537445 179.0840802 37.82194519 180.3710022 C37.81687812 183.01560015 37.81410471 185.66009536 37.81469727 188.3046875 C37.81479879 191.68626114 37.80115413 195.06762436 37.78392506 198.44914818 C37.77010226 201.68223669 37.7707155 204.91532345 37.76953125 208.1484375 C37.76234573 209.36002533 37.75516022 210.57161316 37.74775696 211.81991577 C37.75083359 212.9510379 37.75391022 214.08216003 37.75708008 215.24755859 C37.75565506 216.2400058 37.75423004 217.232453 37.75276184 218.25497437 C38.28041967 224.11343191 40.98994598 227.8076708 45 232 C50.41524618 235.86803298 55.58671432 235.2346324 62 235 C62 238.96 62 242.92 62 247 C60.329375 246.9175 58.65875 246.835 56.9375 246.75 C50.63371048 246.76618431 47.06558571 247.94239759 42.5 252.49609375 C38.73172054 256.78893484 37.87617827 259.91993655 37.85473633 265.49365234 C37.84835648 266.61847015 37.84197662 267.74328796 37.83540344 268.90219116 C37.83429062 270.11782745 37.8331778 271.33346375 37.83203125 272.5859375 C37.82870285 273.83500885 37.82537445 275.0840802 37.82194519 276.3710022 C37.81687812 279.01560015 37.81410471 281.66009536 37.81469727 284.3046875 C37.81479879 287.68626114 37.80115413 291.06762436 37.78392506 294.44914818 C37.77010226 297.68223669 37.7707155 300.91532345 37.76953125 304.1484375 C37.76234573 305.36002533 37.75516022 306.57161316 37.74775696 307.81991577 C37.75083359 308.9510379 37.75391022 310.08216003 37.75708008 311.24755859 C37.75565506 312.2400058 37.75423004 313.232453 37.75276184 314.25497437 C38.28041967 320.11343191 40.98994598 323.8076708 45 328 C50.60754094 331.80106766 56.08355268 331.40503839 62.60498047 331.34057617 C63.76653152 331.34101425 64.92808258 331.34145233 66.12483215 331.34190369 C69.95578954 331.33981732 73.78630676 331.31649253 77.6171875 331.29296875 C80.27662904 331.28737226 82.93604635 331.2829548 85.5954895 331.28010559 C91.87461623 331.27079601 98.15358553 331.24619711 104.43264306 331.21605712 C111.5837726 331.18247912 118.73490982 331.16601858 125.88609862 331.15097082 C140.59081279 331.11964648 155.29540364 331.06690726 170 331 C169.98334541 331.9505426 169.98334541 331.9505426 169.96635437 332.92028809 C169.85540012 339.5391627 169.78018316 346.15777145 169.7253418 352.77734375 C169.70025842 355.2449009 169.66618353 357.7123842 169.62280273 360.1796875 C169.56188253 363.73456078 169.53372713 367.2884484 169.51171875 370.84375 C169.48591232 371.93989624 169.4601059 373.03604248 169.43351746 374.16540527 C169.43053789 382.37438692 171.377236 387.26103414 177.0703125 393.13671875 C217.54135964 423.68235699 289.15396809 418.27835285 336.51147461 411.98974609 C345.54722932 410.6653649 354.24252999 408.60250239 363 406 C364.13050781 405.69191406 365.26101563 405.38382812 366.42578125 405.06640625 C377.6205255 401.89609677 390.31159731 396.81035606 396.57928562 386.36908627 C398.19952137 382.52685444 398.42236334 379.28134947 398.38768005 375.18836975 C398.39575836 374.0365266 398.39575836 374.0365266 398.40399987 372.8614139 C398.41826371 370.29815081 398.41117975 367.73540529 398.40405273 365.17211914 C398.40975713 363.33039435 398.41672165 361.48867309 398.42485046 359.6469574 C398.44278921 354.65108324 398.44161214 349.65538465 398.43590808 344.65948796 C398.43281731 340.48696772 398.43890743 336.31448125 398.44494683 332.14196581 C398.45899276 322.29782166 398.45743014 312.4537643 398.44604492 302.60961914 C398.43456298 292.45757217 398.44864054 282.30578935 398.4754414 272.15377718 C398.49759986 263.43343021 398.50423545 254.71316615 398.49836498 245.99279302 C398.49499464 240.78631511 398.49741571 235.58000653 398.51461601 230.37355232 C398.53008538 225.47738759 398.52612961 220.58161413 398.50731087 215.68546486 C398.503625 213.89039942 398.5067334 212.09530499 398.51719666 210.30026627 C398.53040878 207.84593209 398.51885813 205.39289284 398.50120544 202.93861389 C398.51081045 202.23159822 398.52041546 201.52458255 398.53031152 200.79614216 C398.44125932 194.76106447 396.36943445 190.75529655 392.46484375 186.21484375 C383.34108267 178.58448602 373.15756129 174.68908263 361.86474609 171.52294922 C360.26585059 171.07455511 358.67322134 170.60392016 357.08203125 170.12890625 C335.26061895 164.05165867 310.58317128 162.35782451 288 163 C287.85498047 161.86304688 287.85498047 161.86304688 287.70703125 160.703125 C286.90383088 157.63232581 286.11120731 156.72218154 283.6875 154.75 C283.09324219 154.24984375 282.49898437 153.7496875 281.88671875 153.234375 C278.30064452 150.88820635 274.95323013 150.88219434 270.75 150.9375 C268.39875 150.9684375 268.39875 150.9684375 266 151 C266 147.04 266 143.08 266 139 C267.546875 139.04125 269.09375 139.0825 270.6875 139.125 C277.34765797 139.10623899 281.01405914 137.46110498 286 133 C289.75157819 128.71248207 290.12106294 125.00813215 290.17700195 119.42456055 C290.18983719 118.30627365 290.20267242 117.18798676 290.21589661 116.03581238 C290.22328354 114.83161148 290.23067047 113.62741058 290.23828125 112.38671875 C290.25038887 110.52234917 290.25038887 110.52234917 290.26274109 108.62031555 C290.27656986 105.99013662 290.28729741 103.35993984 290.29516602 100.72973633 C290.30402703 98.04005285 290.32490687 95.35088582 290.35668945 92.66137695 C290.39933252 88.77799904 290.41553093 84.89530164 290.42578125 81.01171875 C290.45204338 79.21452644 290.45204338 79.21452644 290.47883606 77.38102722 C290.458906 69.69841801 289.66872686 65.09063045 284.4375 59.2578125 C278.7159649 54.74899408 274.12560749 54.85130491 267.0242157 54.85282898 C266.10693768 54.84915229 265.18965966 54.8454756 264.24458534 54.8416875 C261.16394643 54.83065437 258.08334125 54.82680747 255.00268555 54.82299805 C252.79673149 54.81673322 250.5907785 54.81008641 248.38482666 54.80308533 C242.38685459 54.78568 236.38889048 54.77512526 230.39089942 54.7668798 C226.64463459 54.76172963 222.89837223 54.75565397 219.15210915 54.74936867 C208.77643887 54.73250215 198.40077017 54.71786638 188.02508831 54.71061993 C185.33418972 54.70871011 182.64329114 54.70678976 179.95239258 54.70483398 C179.28360243 54.70435024 178.61481229 54.7038665 177.92575578 54.7033681 C167.08955459 54.69506609 156.25346374 54.6697243 145.41731074 54.63725331 C134.28766253 54.60417509 123.15805426 54.58650331 112.02835304 54.58297569 C105.781139 54.58062298 99.53409949 54.5716333 93.28693199 54.54651451 C87.41083772 54.52326895 81.53503333 54.51898655 75.65890503 54.52927589 C73.50261789 54.52977218 71.34631665 54.52342448 69.19007301 54.50971985 C66.24527856 54.49205082 63.30153012 54.49908283 60.35673523 54.51225281 C59.50439023 54.50128356 58.65204523 54.49031432 57.7738716 54.47901267 C49.1796821 54.57174734 43.98306322 58.1116479 39 65 Z " fill="#F6F6F6" transform="translate(0,0)"/>
<path d="M0 0 C1.34846543 -0.00935994 1.34846543 -0.00935994 2.72417259 -0.01890898 C5.74297521 -0.0348912 8.76097624 -0.02221419 11.77978516 -0.00964355 C13.94135002 -0.01506234 16.10291119 -0.02218362 18.26446533 -0.03088379 C24.14043448 -0.04914891 30.0161233 -0.04203634 35.89209747 -0.02936745 C42.03484363 -0.01925634 48.17756542 -0.02862786 54.3203125 -0.03491211 C64.63692545 -0.04219402 74.95342395 -0.0325865 85.27001953 -0.0135498 C97.20571502 0.00821988 109.14113723 0.0011689 121.0768261 -0.02085543 C131.31554953 -0.03899389 141.55419058 -0.04157533 151.79292488 -0.03110075 C157.91202399 -0.0248573 164.03099455 -0.02405364 170.15008545 -0.0372467 C175.90227838 -0.04878191 181.65411819 -0.04082186 187.40627289 -0.01766968 C189.52026533 -0.01237015 191.63428737 -0.0139175 193.74826813 -0.02272034 C196.62848154 -0.03361016 199.50755504 -0.01999158 202.38769531 0 C203.22932409 -0.00892289 204.07095287 -0.01784577 204.93808556 -0.02703905 C208.58923056 0.02230386 210.74268805 0.17117648 213.71248627 2.38791656 C215.54090776 5.00462206 215.70022696 6.49493498 215.71142578 9.67199707 C215.72403442 10.69986328 215.73664307 11.72772949 215.74963379 12.78674316 C215.74153687 13.89098633 215.73343994 14.99522949 215.72509766 16.13293457 C215.72892456 17.27198242 215.73275146 18.41103027 215.73669434 19.58459473 C215.7394154 21.99199304 215.73204076 24.39942083 215.71533203 26.8067627 C215.69392691 30.49428139 215.71512898 34.17985156 215.74072266 37.86730957 C215.73807942 40.20585554 215.73295452 42.5444003 215.72509766 44.88293457 C215.73319458 45.98717773 215.7412915 47.0914209 215.74963379 48.22912598 C215.73072083 49.77092529 215.73072083 49.77092529 215.71142578 51.34387207 C215.70824341 52.24669922 215.70506104 53.14952637 215.70178223 54.07971191 C214.9949365 57.45884556 213.96644323 58.43839202 211.19384766 60.50793457 C208.13802431 60.90064741 205.44330831 61.04826453 202.38769531 61.01586914 C201.48871836 61.0221091 200.5897414 61.02834907 199.66352272 61.03477812 C196.6447201 61.05076034 193.62671907 61.03808333 190.60791016 61.0255127 C188.44634529 61.03093148 186.28478413 61.03805276 184.12322998 61.04675293 C178.24726083 61.06501805 172.37157201 61.05790548 166.49559784 61.04523659 C160.35285168 61.03512548 154.21012989 61.04449701 148.06738281 61.05078125 C137.75076986 61.05806316 127.43427136 61.04845564 117.11767578 61.02941895 C105.18198029 61.00764926 93.24655808 61.01470024 81.31086922 61.03672457 C71.07214579 61.05486303 60.83350473 61.05744447 50.59477043 61.04696989 C44.47567132 61.04072644 38.35670077 61.03992278 32.23760986 61.05311584 C26.48541693 61.06465105 20.73357712 61.056691 14.98142242 61.03353882 C12.86742998 61.02823929 10.75340794 61.02978664 8.63942719 61.03858948 C5.75921377 61.0494793 2.88014027 61.03586072 0 61.01586914 C-0.84162878 61.02479203 -1.68325756 61.03371491 -2.55039024 61.04290819 C-6.20153524 60.99356528 -8.35499274 60.84469266 -11.32479095 58.62795258 C-13.15321245 56.01124708 -13.31253165 54.52093416 -13.32373047 51.34387207 C-13.33633911 50.31600586 -13.34894775 49.28813965 -13.36193848 48.22912598 C-13.35384155 47.12488281 -13.34574463 46.02063965 -13.33740234 44.88293457 C-13.34122925 43.74388672 -13.34505615 42.60483887 -13.34899902 41.43127441 C-13.35172009 39.0238761 -13.34434545 36.61644831 -13.32763672 34.20910645 C-13.3062316 30.52158775 -13.32743367 26.83601758 -13.35302734 23.14855957 C-13.3503841 20.8100136 -13.34525921 18.47146884 -13.33740234 16.13293457 C-13.34549927 15.02869141 -13.35359619 13.92444824 -13.36193848 12.78674316 C-13.34932983 11.75887695 -13.33672119 10.73101074 -13.32373047 9.67199707 C-13.3205481 8.76916992 -13.31736572 7.86634277 -13.31408691 6.93615723 C-11.82945707 -0.16123688 -6.14507966 -0.06514969 0 0 Z " fill="#56A3FE" transform="translate(62.80615234375,66.4920654296875)"/>
<path d="M0 0 C0.80914856 0.4097406 0.80914856 0.4097406 1.63464355 0.82775879 C2.3475354 1.18688354 3.06042725 1.5460083 3.79492188 1.91601562 C4.85157043 2.44950623 4.85157043 2.44950623 5.92956543 2.99377441 C16.00177016 7.8888386 27.09779107 10.644441 38 13 C38.64791504 13.14179688 39.29583008 13.28359375 39.96337891 13.4296875 C89.12583135 23.80285487 153.38040867 22.66319054 199.74609375 1.90454102 C200.54587646 1.54707291 201.34565918 1.1896048 202.16967773 0.82130432 C203.07568726 0.41475868 203.07568726 0.41475868 204 0 C204.09898364 6.17467586 204.1715236 12.34888843 204.21972656 18.52416992 C204.23982397 20.62418667 204.26710666 22.72414758 204.30175781 24.82397461 C204.3503577 27.84502958 204.37298762 30.86534377 204.390625 33.88671875 C204.41127014 34.82335861 204.43191528 35.75999847 204.45318604 36.72502136 C204.45463759 40.95554098 204.40377375 43.33743544 202.1628418 47.01464844 C188.5351987 59.52396028 165.8001678 62.1300558 148.25 64.625 C147.40638916 64.74818604 146.56277832 64.87137207 145.69360352 64.99829102 C130.49879806 67.05064642 115.12153031 67.20787833 99.8125 67.1875 C98.96415588 67.18689575 98.11581177 67.1862915 97.24176025 67.18566895 C77.24705157 67.14718961 57.95518132 65.76189055 38.37792969 61.51464844 C36.8521805 61.18443496 35.32428585 60.86389998 33.79394531 60.55566406 C25.80383487 58.94574418 18.57205663 56.64139387 11.25 53.0625 C10.24779419 52.57668457 10.24779419 52.57668457 9.2253418 52.08105469 C5.08009462 49.93241801 2.41774063 47.99447148 0 44 C-0.54212854 40.62216463 -0.46586255 37.30013624 -0.390625 33.88671875 C-0.38496521 32.91716751 -0.37930542 31.94761627 -0.37347412 30.94868469 C-0.35113706 27.86111454 -0.30094498 24.77471761 -0.25 21.6875 C-0.22993158 19.59051159 -0.21168141 17.49350493 -0.1953125 15.39648438 C-0.15128087 10.26387293 -0.08227111 5.13213518 0 0 Z " fill="#FCDC54" transform="translate(182,216)"/>
<path d="M0 0 C0.81404297 0.4103524 0.81404297 0.4103524 1.64453125 0.82899475 C2.35996094 1.18843674 3.07539063 1.54787872 3.8125 1.91821289 C4.52019531 2.27428116 5.22789062 2.63034943 5.95703125 2.99720764 C17.69862803 8.76057702 30.46549942 11.00530296 43.20581055 13.45117188 C44.96153712 13.79602756 46.71385765 14.15924898 48.46020508 14.54882812 C55.65713215 16.13260837 62.84106276 16.67428979 70.1875 17.125 C70.85784271 17.16636078 71.52818542 17.20772156 72.21884155 17.25033569 C106.64981488 19.32925755 144.65036727 19.78164086 178 9.75 C178.96421875 9.47542969 179.9284375 9.20085937 180.921875 8.91796875 C188.91014229 6.56164123 196.40720877 3.39485377 204 0 C204.09898364 6.17467586 204.1715236 12.34888843 204.21972656 18.52416992 C204.23982397 20.62418667 204.26710666 22.72414758 204.30175781 24.82397461 C204.3503577 27.84502958 204.37298762 30.86534377 204.390625 33.88671875 C204.41127014 34.82335861 204.43191528 35.75999847 204.45318604 36.72502136 C204.45463759 40.95554098 204.40377375 43.33743544 202.1628418 47.01464844 C188.5351987 59.52396028 165.8001678 62.1300558 148.25 64.625 C147.40638916 64.74818604 146.56277832 64.87137207 145.69360352 64.99829102 C130.49879806 67.05064642 115.12153031 67.20787833 99.8125 67.1875 C98.96415588 67.18689575 98.11581177 67.1862915 97.24176025 67.18566895 C77.24705157 67.14718961 57.95518132 65.76189055 38.37792969 61.51464844 C36.8521805 61.18443496 35.32428585 60.86389998 33.79394531 60.55566406 C25.80383487 58.94574418 18.57205663 56.64139387 11.25 53.0625 C10.24779419 52.57668457 10.24779419 52.57668457 9.2253418 52.08105469 C5.08009462 49.93241801 2.41774063 47.99447148 0 44 C-0.54212854 40.62216463 -0.46586255 37.30013624 -0.390625 33.88671875 C-0.38496521 32.91716751 -0.37930542 31.94761627 -0.37347412 30.94868469 C-0.35113706 27.86111454 -0.30094498 24.77471761 -0.25 21.6875 C-0.22993158 19.59051159 -0.21168141 17.49350493 -0.1953125 15.39648438 C-0.15128087 10.26387293 -0.08227111 5.13213518 0 0 Z " fill="#FDDC54" transform="translate(182,276)"/>
<path d="M0 0 C0.81404297 0.4103524 0.81404297 0.4103524 1.64453125 0.82899475 C2.35996094 1.18843674 3.07539063 1.54787872 3.8125 1.91821289 C4.52019531 2.27428116 5.22789062 2.63034943 5.95703125 2.99720764 C17.69862803 8.76057702 30.46549942 11.00530296 43.20581055 13.45117188 C44.96153712 13.79602756 46.71385765 14.15924898 48.46020508 14.54882812 C55.65735749 16.13265796 62.84098242 16.67292805 70.1875 17.125 C70.85285767 17.16702545 71.51821533 17.2090509 72.20373535 17.25234985 C87.4748848 18.20006288 102.70226002 18.28612857 118 18 C118.90073242 17.98598145 119.80146484 17.97196289 120.72949219 17.95751953 C149.72449667 17.38979336 177.518382 11.73790282 204 0 C204.09898364 6.17467586 204.1715236 12.34888843 204.21972656 18.52416992 C204.23982397 20.62418667 204.26710666 22.72414758 204.30175781 24.82397461 C204.3503577 27.84502958 204.37298762 30.86534377 204.390625 33.88671875 C204.41127014 34.82335861 204.43191528 35.75999847 204.45318604 36.72502136 C204.45464723 40.98364741 204.40805855 43.33908784 202.12890625 47.03051758 C194.15725251 54.40521147 182.25968962 57.17019635 172 60 C170.96488281 60.28746094 169.92976562 60.57492187 168.86328125 60.87109375 C128.48780358 71.05732537 78.674966 70.77750257 38.26513672 61.51464844 C36.08987692 61.02042041 33.90944857 60.57271079 31.72265625 60.1328125 C24.44776604 58.59052189 17.92066967 56.32300726 11.25 53.0625 C10.24779419 52.57668457 10.24779419 52.57668457 9.2253418 52.08105469 C5.08009462 49.93241801 2.41774063 47.99447148 0 44 C-0.54212854 40.62216463 -0.46586255 37.30013624 -0.390625 33.88671875 C-0.38496521 32.91716751 -0.37930542 31.94761627 -0.37347412 30.94868469 C-0.35113706 27.86111454 -0.30094498 24.77471761 -0.25 21.6875 C-0.22993158 19.59051159 -0.21168141 17.49350493 -0.1953125 15.39648438 C-0.15128087 10.26387293 -0.08227111 5.13213518 0 0 Z " fill="#FDDC54" transform="translate(182,336)"/>
<path d="M0 0 C0.84054593 -0.0034177 1.68109187 -0.0068354 2.54710889 -0.01035666 C5.36803452 -0.01695351 8.18801191 0.00507008 11.0088501 0.0269165 C13.02911863 0.02804459 15.0493888 0.02741188 17.06965637 0.02514648 C22.55905698 0.02399691 28.04810932 0.04754586 33.53742886 0.07544231 C39.27228985 0.10041526 45.00715846 0.10279473 50.74206543 0.10754395 C61.60408655 0.11998579 72.465947 0.15282384 83.32789731 0.1929419 C95.69290749 0.23762195 108.05792526 0.25963719 120.42299604 0.27972364 C145.86088289 0.32155534 171.29862703 0.39193095 196.73638916 0.48101807 C196.73638916 0.81101807 196.73638916 1.14101807 196.73638916 1.48101807 C195.54529541 1.56738525 194.35420166 1.65375244 193.12701416 1.74273682 C166.25173268 3.88823116 134.67056661 6.736309 113.17388916 24.79351807 C109.41939534 29.20096733 108.35497214 33.51079994 108.22467041 39.19195557 C108.17149658 41.05787354 108.17149658 41.05787354 108.11724854 42.96148682 C108.09468994 44.24668213 108.07213135 45.53187744 108.04888916 46.85601807 C108.014729 48.1644165 107.98056885 49.47281494 107.94537354 50.82086182 C107.86311162 54.04082831 107.79388653 57.26052986 107.73638916 60.48101807 C92.68101874 60.57444924 77.62567078 60.64499124 62.57007217 60.68826675 C55.57951416 60.70889424 48.58913626 60.73701808 41.59869385 60.78277588 C34.85544094 60.82689461 28.11241402 60.85014051 21.36901093 60.86052704 C18.79332276 60.86793108 16.2176451 60.88238898 13.64203644 60.90393829 C10.04077311 60.93287691 6.44028868 60.93697792 2.83892822 60.93511963 C1.23347137 60.95669128 1.23347137 60.95669128 -0.40441895 60.97869873 C-7.54946153 60.93867171 -7.54946153 60.93867171 -10.9251709 58.77539062 C-12.50633272 56.06494082 -12.77015456 54.44737388 -12.78118896 51.31695557 C-12.79379761 50.28908936 -12.80640625 49.26122314 -12.81939697 48.20220947 C-12.81130005 47.09796631 -12.80320313 45.99372314 -12.79486084 44.85601807 C-12.79868774 43.71697021 -12.80251465 42.57792236 -12.80645752 41.40435791 C-12.80917858 38.99695959 -12.80180394 36.58953181 -12.78509521 34.18218994 C-12.76369009 30.49467124 -12.78489216 26.80910107 -12.81048584 23.12164307 C-12.8078426 20.78309709 -12.80271771 18.44455233 -12.79486084 16.10601807 C-12.80295776 15.0017749 -12.81105469 13.89753174 -12.81939697 12.75982666 C-12.80678833 11.73196045 -12.79417969 10.70409424 -12.78118896 9.64508057 C-12.77800659 8.74225342 -12.77482422 7.83942627 -12.77154541 6.90924072 C-11.33534716 0.04337778 -5.99955878 -0.08893597 0 0 Z " fill="#56A3FE" transform="translate(62.26361083984375,162.51898193359375)"/>
<path d="M0 0 C0.77358856 0.00027191 1.54717712 0.00054382 2.34420776 0.00082397 C78.18337115 0.12217285 78.18337115 0.12217285 104.32421875 19.66015625 C106.11895067 21.58273209 106.69652981 22.53829508 106.75 25.1875 C99.99086981 36.07255085 83.63384768 39.08049901 72.03515625 41.8359375 C55.48812389 45.52000359 38.70305254 47.89468009 21.75 48.1875 C20.65075195 48.21328125 19.55150391 48.2390625 18.41894531 48.265625 C-8.1093806 48.82692256 -35.26273431 47.95616398 -61.25 42.1875 C-62.58202084 41.92182281 -63.9140524 41.65619934 -65.24609375 41.390625 C-76.09373141 39.09138332 -89.99613948 35.06345495 -97.25 26.1875 C-97.375 23.75 -97.375 23.75 -96.25 21.1875 C-84.35900075 8.30558415 -61.92496207 5.62983718 -45.5625 2.9375 C-44.57862305 2.77427246 -43.59474609 2.61104492 -42.58105469 2.44287109 C-28.46536584 0.26211561 -14.25342095 -0.01907934 0 0 Z " fill="#FCCB00" transform="translate(279.25,174.8125)"/>
<path d="M0 0 C1.13199829 -0.00058411 2.26399658 -0.00116821 3.43029785 -0.00177002 C7.17487162 0.00101843 10.91865109 0.03214805 14.66308594 0.06347656 C17.25811325 0.0709362 19.85314619 0.07663044 22.44818115 0.08062744 C28.5822441 0.09434356 34.71597886 0.12587407 40.84991813 0.1660254 C48.51935674 0.21513702 56.18884181 0.23702003 63.85839844 0.25878906 C77.53830826 0.29773793 91.21759526 0.37786702 104.89746094 0.45410156 C104.89746094 20.25410156 104.89746094 40.05410156 104.89746094 60.45410156 C76.06887229 60.61475624 76.06887229 60.61475624 61.84915543 60.65511703 C54.15259203 60.6772997 46.45620165 60.7054803 38.75976562 60.75585938 C32.01651272 60.7999781 25.2734858 60.82322401 18.5300827 60.83361053 C15.95439453 60.84101458 13.37871688 60.85547248 10.80310822 60.87702179 C7.20184488 60.9059604 3.60136045 60.91006141 0 60.90820312 C-1.60545685 60.92977478 -1.60545685 60.92977478 -3.24334717 60.95178223 C-10.38838975 60.91175521 -10.38838975 60.91175521 -13.76409912 58.74847412 C-15.34526094 56.03802431 -15.60908278 54.42045737 -15.62011719 51.29003906 C-15.63272583 50.26217285 -15.64533447 49.23430664 -15.6583252 48.17529297 C-15.65022827 47.0710498 -15.64213135 45.96680664 -15.63378906 44.82910156 C-15.63761597 43.69005371 -15.64144287 42.55100586 -15.64538574 41.37744141 C-15.6481068 38.97004309 -15.64073216 36.56261531 -15.62402344 34.15527344 C-15.60261832 30.46775474 -15.62382039 26.78218457 -15.64941406 23.09472656 C-15.64677082 20.75618059 -15.64164593 18.41763583 -15.63378906 16.07910156 C-15.64188599 14.9748584 -15.64998291 13.87061523 -15.6583252 12.73291016 C-15.64571655 11.70504395 -15.63310791 10.67717773 -15.62011719 9.61816406 C-15.61693481 8.71533691 -15.61375244 7.81250977 -15.61047363 6.88232422 C-15.10253906 4.45410156 -15.10253906 4.45410156 -13.76409912 2.159729 C-9.43943671 -0.61167676 -5.02569885 -0.0675276 0 0 Z " fill="#56A3FE" transform="translate(65.1025390625,258.5458984375)"/>
<path d="M0 0 C35.64 0 71.28 0 108 0 C108 3.96 108 7.92 108 12 C72.36 12 36.72 12 0 12 C0 8.04 0 4.08 0 0 Z " fill="#F7F7F7" transform="translate(110,139)"/>
<path d="M0 0 C1.23234375 -0.00515625 2.4646875 -0.0103125 3.734375 -0.015625 C5.66023438 0.00757813 5.66023438 0.00757813 7.625 0.03125 C8.90890625 0.01578125 10.1928125 0.0003125 11.515625 -0.015625 C12.74796875 -0.01046875 13.9803125 -0.0053125 15.25 0 C16.93996094 0.00676758 16.93996094 0.00676758 18.6640625 0.01367188 C21.625 0.53125 21.625 0.53125 23.99023438 2.16601562 C26.11501472 5.24021992 26.14134887 7.18522593 26.15625 10.90625 C26.16398437 12.75476563 26.16398437 12.75476563 26.171875 14.640625 C26.15640625 15.92453125 26.1409375 17.2084375 26.125 18.53125 C26.14046875 19.81515625 26.1559375 21.0990625 26.171875 22.421875 C26.16671875 23.65421875 26.1615625 24.8865625 26.15625 26.15625 C26.15173828 27.28289062 26.14722656 28.40953125 26.14257812 29.5703125 C25.625 32.53125 25.625 32.53125 23.99023438 34.89648438 C20.91603008 37.02126472 18.97102407 37.04759887 15.25 37.0625 C14.01765625 37.06765625 12.7853125 37.0728125 11.515625 37.078125 C10.23171875 37.06265625 8.9478125 37.0471875 7.625 37.03125 C5.69914062 37.05445313 5.69914062 37.05445313 3.734375 37.078125 C2.50203125 37.07296875 1.2696875 37.0678125 0 37.0625 C-1.68996094 37.05573242 -1.68996094 37.05573242 -3.4140625 37.04882812 C-6.375 36.53125 -6.375 36.53125 -8.74023438 34.89648438 C-10.86501472 31.82228008 -10.89134887 29.87727407 -10.90625 26.15625 C-10.91140625 24.92390625 -10.9165625 23.6915625 -10.921875 22.421875 C-10.90640625 21.13796875 -10.8909375 19.8540625 -10.875 18.53125 C-10.89046875 17.24734375 -10.9059375 15.9634375 -10.921875 14.640625 C-10.91671875 13.40828125 -10.9115625 12.1759375 -10.90625 10.90625 C-10.90173828 9.77960938 -10.89722656 8.65296875 -10.89257812 7.4921875 C-10.375 4.53125 -10.375 4.53125 -8.74023438 2.16601562 C-5.66603008 0.04123528 -3.72102407 0.01490113 0 0 Z " fill="#000001" transform="translate(120.375,270.46875)"/>
<path d="M0 0 C1.23234375 -0.00515625 2.4646875 -0.0103125 3.734375 -0.015625 C5.66023438 0.00757813 5.66023438 0.00757813 7.625 0.03125 C8.90890625 0.01578125 10.1928125 0.0003125 11.515625 -0.015625 C12.74796875 -0.01046875 13.9803125 -0.0053125 15.25 0 C16.93996094 0.00676758 16.93996094 0.00676758 18.6640625 0.01367188 C21.625 0.53125 21.625 0.53125 23.99023438 2.16601562 C26.11501472 5.24021992 26.14134887 7.18522593 26.15625 10.90625 C26.16398437 12.75476563 26.16398437 12.75476563 26.171875 14.640625 C26.15640625 15.92453125 26.1409375 17.2084375 26.125 18.53125 C26.14046875 19.81515625 26.1559375 21.0990625 26.171875 22.421875 C26.16671875 23.65421875 26.1615625 24.8865625 26.15625 26.15625 C26.15173828 27.28289062 26.14722656 28.40953125 26.14257812 29.5703125 C25.625 32.53125 25.625 32.53125 23.99023438 34.89648438 C20.91603008 37.02126472 18.97102407 37.04759887 15.25 37.0625 C14.01765625 37.06765625 12.7853125 37.0728125 11.515625 37.078125 C10.23171875 37.06265625 8.9478125 37.0471875 7.625 37.03125 C5.69914062 37.05445313 5.69914062 37.05445313 3.734375 37.078125 C2.50203125 37.07296875 1.2696875 37.0678125 0 37.0625 C-1.68996094 37.05573242 -1.68996094 37.05573242 -3.4140625 37.04882812 C-6.375 36.53125 -6.375 36.53125 -8.74023438 34.89648438 C-10.86501472 31.82228008 -10.89134887 29.87727407 -10.90625 26.15625 C-10.91140625 24.92390625 -10.9165625 23.6915625 -10.921875 22.421875 C-10.90640625 21.13796875 -10.8909375 19.8540625 -10.875 18.53125 C-10.89046875 17.24734375 -10.9059375 15.9634375 -10.921875 14.640625 C-10.91671875 13.40828125 -10.9115625 12.1759375 -10.90625 10.90625 C-10.90173828 9.77960938 -10.89722656 8.65296875 -10.89257812 7.4921875 C-10.375 4.53125 -10.375 4.53125 -8.74023438 2.16601562 C-5.66603008 0.04123528 -3.72102407 0.01490113 0 0 Z " fill="#000001" transform="translate(72.375,270.46875)"/>
<path d="M0 0 C1.23234375 -0.00515625 2.4646875 -0.0103125 3.734375 -0.015625 C5.66023438 0.00757813 5.66023438 0.00757813 7.625 0.03125 C8.90890625 0.01578125 10.1928125 0.0003125 11.515625 -0.015625 C12.74796875 -0.01046875 13.9803125 -0.0053125 15.25 0 C16.93996094 0.00676758 16.93996094 0.00676758 18.6640625 0.01367188 C21.625 0.53125 21.625 0.53125 23.99023438 2.16601562 C26.11501472 5.24021992 26.14134887 7.18522593 26.15625 10.90625 C26.16398437 12.75476563 26.16398437 12.75476563 26.171875 14.640625 C26.15640625 15.92453125 26.1409375 17.2084375 26.125 18.53125 C26.14046875 19.81515625 26.1559375 21.0990625 26.171875 22.421875 C26.16671875 23.65421875 26.1615625 24.8865625 26.15625 26.15625 C26.15173828 27.28289062 26.14722656 28.40953125 26.14257812 29.5703125 C25.625 32.53125 25.625 32.53125 23.99023438 34.89648438 C20.91603008 37.02126472 18.97102407 37.04759887 15.25 37.0625 C14.01765625 37.06765625 12.7853125 37.0728125 11.515625 37.078125 C10.23171875 37.06265625 8.9478125 37.0471875 7.625 37.03125 C5.69914062 37.05445313 5.69914062 37.05445313 3.734375 37.078125 C2.50203125 37.07296875 1.2696875 37.0678125 0 37.0625 C-1.68996094 37.05573242 -1.68996094 37.05573242 -3.4140625 37.04882812 C-6.375 36.53125 -6.375 36.53125 -8.74023438 34.89648438 C-10.86501472 31.82228008 -10.89134887 29.87727407 -10.90625 26.15625 C-10.91140625 24.92390625 -10.9165625 23.6915625 -10.921875 22.421875 C-10.90640625 21.13796875 -10.8909375 19.8540625 -10.875 18.53125 C-10.89046875 17.24734375 -10.9059375 15.9634375 -10.921875 14.640625 C-10.91671875 13.40828125 -10.9115625 12.1759375 -10.90625 10.90625 C-10.90173828 9.77960938 -10.89722656 8.65296875 -10.89257812 7.4921875 C-10.375 4.53125 -10.375 4.53125 -8.74023438 2.16601562 C-5.66603008 0.04123528 -3.72102407 0.01490113 0 0 Z " fill="#000001" transform="translate(120.375,174.46875)"/>
<path d="M0 0 C1.23234375 -0.00515625 2.4646875 -0.0103125 3.734375 -0.015625 C5.66023438 0.00757813 5.66023438 0.00757813 7.625 0.03125 C8.90890625 0.01578125 10.1928125 0.0003125 11.515625 -0.015625 C12.74796875 -0.01046875 13.9803125 -0.0053125 15.25 0 C16.93996094 0.00676758 16.93996094 0.00676758 18.6640625 0.01367188 C21.625 0.53125 21.625 0.53125 23.99023438 2.16601562 C26.11501472 5.24021992 26.14134887 7.18522593 26.15625 10.90625 C26.16398437 12.75476563 26.16398437 12.75476563 26.171875 14.640625 C26.15640625 15.92453125 26.1409375 17.2084375 26.125 18.53125 C26.14046875 19.81515625 26.1559375 21.0990625 26.171875 22.421875 C26.16671875 23.65421875 26.1615625 24.8865625 26.15625 26.15625 C26.15173828 27.28289062 26.14722656 28.40953125 26.14257812 29.5703125 C25.625 32.53125 25.625 32.53125 23.99023438 34.89648438 C20.91603008 37.02126472 18.97102407 37.04759887 15.25 37.0625 C14.01765625 37.06765625 12.7853125 37.0728125 11.515625 37.078125 C10.23171875 37.06265625 8.9478125 37.0471875 7.625 37.03125 C5.69914062 37.05445313 5.69914062 37.05445313 3.734375 37.078125 C2.50203125 37.07296875 1.2696875 37.0678125 0 37.0625 C-1.68996094 37.05573242 -1.68996094 37.05573242 -3.4140625 37.04882812 C-6.375 36.53125 -6.375 36.53125 -8.74023438 34.89648438 C-10.86501472 31.82228008 -10.89134887 29.87727407 -10.90625 26.15625 C-10.91140625 24.92390625 -10.9165625 23.6915625 -10.921875 22.421875 C-10.90640625 21.13796875 -10.8909375 19.8540625 -10.875 18.53125 C-10.89046875 17.24734375 -10.9059375 15.9634375 -10.921875 14.640625 C-10.91671875 13.40828125 -10.9115625 12.1759375 -10.90625 10.90625 C-10.90173828 9.77960938 -10.89722656 8.65296875 -10.89257812 7.4921875 C-10.375 4.53125 -10.375 4.53125 -8.74023438 2.16601562 C-5.66603008 0.04123528 -3.72102407 0.01490113 0 0 Z " fill="#000001" transform="translate(72.375,174.46875)"/>
<path d="M0 0 C1.23234375 -0.00515625 2.4646875 -0.0103125 3.734375 -0.015625 C5.66023438 0.00757812 5.66023438 0.00757812 7.625 0.03125 C8.90890625 0.01578125 10.1928125 0.0003125 11.515625 -0.015625 C12.74796875 -0.01046875 13.9803125 -0.0053125 15.25 0 C16.93996094 0.00676758 16.93996094 0.00676758 18.6640625 0.01367188 C21.625 0.53125 21.625 0.53125 23.99023438 2.16601562 C26.11501472 5.24021992 26.14134887 7.18522593 26.15625 10.90625 C26.16398437 12.75476563 26.16398437 12.75476563 26.171875 14.640625 C26.15640625 15.92453125 26.1409375 17.2084375 26.125 18.53125 C26.14046875 19.81515625 26.1559375 21.0990625 26.171875 22.421875 C26.16671875 23.65421875 26.1615625 24.8865625 26.15625 26.15625 C26.15173828 27.28289062 26.14722656 28.40953125 26.14257812 29.5703125 C25.625 32.53125 25.625 32.53125 23.99023438 34.89648438 C20.91603008 37.02126472 18.97102407 37.04759887 15.25 37.0625 C14.01765625 37.06765625 12.7853125 37.0728125 11.515625 37.078125 C10.23171875 37.06265625 8.9478125 37.0471875 7.625 37.03125 C5.69914062 37.05445312 5.69914062 37.05445312 3.734375 37.078125 C2.50203125 37.07296875 1.2696875 37.0678125 0 37.0625 C-1.68996094 37.05573242 -1.68996094 37.05573242 -3.4140625 37.04882812 C-6.375 36.53125 -6.375 36.53125 -8.74023438 34.89648438 C-10.86501472 31.82228008 -10.89134887 29.87727407 -10.90625 26.15625 C-10.91140625 24.92390625 -10.9165625 23.6915625 -10.921875 22.421875 C-10.90640625 21.13796875 -10.8909375 19.8540625 -10.875 18.53125 C-10.89046875 17.24734375 -10.9059375 15.9634375 -10.921875 14.640625 C-10.91671875 13.40828125 -10.9115625 12.1759375 -10.90625 10.90625 C-10.90173828 9.77960938 -10.89722656 8.65296875 -10.89257812 7.4921875 C-10.375 4.53125 -10.375 4.53125 -8.74023438 2.16601562 C-5.66603008 0.04123528 -3.72102407 0.01490113 0 0 Z " fill="#000001" transform="translate(120.375,78.46875)"/>
<path d="M0 0 C1.23234375 -0.00515625 2.4646875 -0.0103125 3.734375 -0.015625 C5.66023438 0.00757812 5.66023438 0.00757812 7.625 0.03125 C8.90890625 0.01578125 10.1928125 0.0003125 11.515625 -0.015625 C12.74796875 -0.01046875 13.9803125 -0.0053125 15.25 0 C16.93996094 0.00676758 16.93996094 0.00676758 18.6640625 0.01367188 C21.625 0.53125 21.625 0.53125 23.99023438 2.16601562 C26.11501472 5.24021992 26.14134887 7.18522593 26.15625 10.90625 C26.16398437 12.75476563 26.16398437 12.75476563 26.171875 14.640625 C26.15640625 15.92453125 26.1409375 17.2084375 26.125 18.53125 C26.14046875 19.81515625 26.1559375 21.0990625 26.171875 22.421875 C26.16671875 23.65421875 26.1615625 24.8865625 26.15625 26.15625 C26.15173828 27.28289062 26.14722656 28.40953125 26.14257812 29.5703125 C25.625 32.53125 25.625 32.53125 23.99023438 34.89648438 C20.91603008 37.02126472 18.97102407 37.04759887 15.25 37.0625 C14.01765625 37.06765625 12.7853125 37.0728125 11.515625 37.078125 C10.23171875 37.06265625 8.9478125 37.0471875 7.625 37.03125 C5.69914062 37.05445312 5.69914062 37.05445312 3.734375 37.078125 C2.50203125 37.07296875 1.2696875 37.0678125 0 37.0625 C-1.68996094 37.05573242 -1.68996094 37.05573242 -3.4140625 37.04882812 C-6.375 36.53125 -6.375 36.53125 -8.74023438 34.89648438 C-10.86501472 31.82228008 -10.89134887 29.87727407 -10.90625 26.15625 C-10.91140625 24.92390625 -10.9165625 23.6915625 -10.921875 22.421875 C-10.90640625 21.13796875 -10.8909375 19.8540625 -10.875 18.53125 C-10.89046875 17.24734375 -10.9059375 15.9634375 -10.921875 14.640625 C-10.91671875 13.40828125 -10.9115625 12.1759375 -10.90625 10.90625 C-10.90173828 9.77960938 -10.89722656 8.65296875 -10.89257812 7.4921875 C-10.375 4.53125 -10.375 4.53125 -8.74023438 2.16601562 C-5.66603008 0.04123528 -3.72102407 0.01490113 0 0 Z " fill="#000001" transform="translate(72.375,78.46875)"/>
<path d="M0 0 C2.4178712 -0.10826289 4.83087556 -0.18739789 7.25 -0.25 C8.27287109 -0.30027344 8.27287109 -0.30027344 9.31640625 -0.3515625 C12.61688576 -0.41564948 14.54778124 -0.35023777 17.19714355 1.70166016 C19.34806005 4.44371824 19.5054313 5.71805378 19.51757812 9.1640625 C19.53018677 10.19192871 19.54279541 11.21979492 19.55578613 12.27880859 C19.54768921 13.38305176 19.53959229 14.48729492 19.53125 15.625 C19.5350769 16.76404785 19.53890381 17.9030957 19.54284668 19.07666016 C19.54556774 21.48405847 19.5381931 23.89148626 19.52148438 26.29882812 C19.50007925 29.98634682 19.52128132 33.67191699 19.546875 37.359375 C19.54423176 39.69792097 19.53910687 42.03646573 19.53125 44.375 C19.53934692 45.47924316 19.54744385 46.58348633 19.55578613 47.72119141 C19.54317749 48.74905762 19.53056885 49.77692383 19.51757812 50.8359375 C19.51280457 52.19017822 19.51280457 52.19017822 19.50793457 53.57177734 C18.83274799 56.79956188 17.57982373 58.00195884 15 60 C12.26317029 60.2911521 9.96059961 60.38322418 7.25 60.25 C6.55261719 60.23195312 5.85523438 60.21390625 5.13671875 60.1953125 C3.42388461 60.14838554 1.71176176 60.07664605 0 60 C0.33 56.04 0.66 52.08 1 48 C-0.98 48 -2.96 48 -5 48 C-5 44.04 -5 40.08 -5 36 C-3.02 36 -1.04 36 1 36 C1 32.04 1 28.08 1 24 C-0.98 24 -2.96 24 -5 24 C-5 20.04 -5 16.08 -5 12 C-3.02 12 -1.04 12 1 12 C0.67 8.04 0.34 4.08 0 0 Z " fill="#2387FE" transform="translate(259,67)"/>
<path d="M0 0 C27.72 0 55.44 0 84 0 C84 3.96 84 7.92 84 12 C56.28 12 28.56 12 0 12 C0 8.04 0 4.08 0 0 Z " fill="#000000" transform="translate(158,103)"/>
<path d="M0 0 C27.72 0 55.44 0 84 0 C84 3.96 84 7.92 84 12 C56.28 12 28.56 12 0 12 C0 8.04 0 4.08 0 0 Z " fill="#000000" transform="translate(158,79)"/>
<path d="M0 0 C0.09898364 6.17467586 0.1715236 12.34888843 0.21972656 18.52416992 C0.23982397 20.62418667 0.26710666 22.72414758 0.30175781 24.82397461 C0.3503577 27.84502958 0.37298762 30.86534377 0.390625 33.88671875 C0.41127014 34.82335861 0.43191528 35.75999847 0.45318604 36.72502136 C0.45464494 40.97698097 0.40624692 43.33939606 -1.86230469 47.02832031 C-9.1319771 53.73342246 -22.11829554 59 -32 59 C-32 58.34 -32 57.68 -32 57 C-29.55640571 55.47791125 -27.02868912 54.16658419 -24.48046875 52.828125 C-21.04036892 50.29274434 -19.36328239 47.35433391 -18.70271301 43.07336426 C-18.55957653 40.89144238 -18.50675033 38.72557419 -18.48828125 36.5390625 C-18.47033005 35.74849457 -18.45237885 34.95792664 -18.43388367 34.1434021 C-18.38003294 31.63732109 -18.34596719 29.13142773 -18.3125 26.625 C-18.27930452 24.91794278 -18.24481281 23.21091024 -18.20898438 21.50390625 C-18.12432148 17.33607347 -18.05739093 13.1682939 -18 9 C-19.98 9.33 -21.96 9.66 -24 10 C-20.77570237 7.85046825 -17.84952568 6.81437459 -14.1875 5.5625 C-10.176515 4.19111284 -4.0546853 0 0 0 Z " fill="#FBCA00" transform="translate(386,336)"/>
<path d="M0 0 C0.09898364 6.17467586 0.1715236 12.34888843 0.21972656 18.52416992 C0.23982397 20.62418667 0.26710666 22.72414758 0.30175781 24.82397461 C0.3503577 27.84502958 0.37298762 30.86534377 0.390625 33.88671875 C0.41127014 34.82335861 0.43191528 35.75999847 0.45318604 36.72502136 C0.45463887 40.95927104 0.40292556 43.33889847 -1.84033203 47.01953125 C-4.42426628 49.38906263 -6.96088992 50.80818722 -10.125 52.3125 C-11.17945313 52.82425781 -12.23390625 53.33601563 -13.3203125 53.86328125 C-16 55 -16 55 -18 55 C-18 39.82 -18 24.64 -18 9 C-19.98 9.33 -21.96 9.66 -24 10 C-20.77570237 7.85046825 -17.84952568 6.81437459 -14.1875 5.5625 C-10.176515 4.19111284 -4.0546853 0 0 0 Z " fill="#FCCA00" transform="translate(386,276)"/>
<path d="M0 0 C0.09898364 6.17467586 0.1715236 12.34888843 0.21972656 18.52416992 C0.23982397 20.62418667 0.26710666 22.72414758 0.30175781 24.82397461 C0.3503577 27.84502958 0.37298762 30.86534377 0.390625 33.88671875 C0.41127014 34.82335861 0.43191528 35.75999847 0.45318604 36.72502136 C0.45463887 40.95927104 0.40292556 43.33889847 -1.84033203 47.01953125 C-4.42426628 49.38906263 -6.96088992 50.80818722 -10.125 52.3125 C-11.17945313 52.82425781 -12.23390625 53.33601563 -13.3203125 53.86328125 C-16 55 -16 55 -18 55 C-18 39.82 -18 24.64 -18 9 C-19.98 9.33 -21.96 9.66 -24 10 C-20.77570237 7.85046825 -17.84952568 6.81437459 -14.1875 5.5625 C-10.176515 4.19111284 -4.0546853 0 0 0 Z " fill="#FCCA00" transform="translate(386,216)"/>
<path d="M0 0 C19.8 0 39.6 0 60 0 C60 3.96 60 7.92 60 12 C40.2 12 20.4 12 0 12 C0 8.04 0 4.08 0 0 Z " fill="#F7F7F7" transform="translate(110,235)"/>
<path d="M0 0 C11.40394267 2.26239508 24.71310622 5.12280694 33 14 C33.95703125 15.87109375 33.95703125 15.87109375 34 18 C28.61500839 26.79820599 16.66357363 30.13416341 7.125 32.4375 C4.75432145 32.98592848 2.38202054 33.50194116 0 34 C3.33628996 30.46566543 6.85342272 28.08295754 10.9765625 25.5625 C14.09738954 23.15259495 14.87288912 20.97451675 15.375 17.125 C14.87073893 12.92282441 13.80278586 11.20318384 11 8 C8.44231838 6.29216808 5.84506911 4.76773896 3.14453125 3.296875 C1 2 1 2 0 0 Z " fill="#E6BA00" transform="translate(352,182)"/>
<path d="M0 0 C7.92 0 15.84 0 24 0 C24 3.96 24 7.92 24 12 C16.08 12 8.16 12 0 12 C0 8.04 0 4.08 0 0 Z " fill="#898890" transform="translate(74,235)"/>
<path d="M0 0 C7.92 0 15.84 0 24 0 C24 3.96 24 7.92 24 12 C16.08 12 8.16 12 0 12 C0 8.04 0 4.08 0 0 Z " fill="#898890" transform="translate(230,139)"/>
<path d="M0 0 C7.92 0 15.84 0 24 0 C24 3.96 24 7.92 24 12 C16.08 12 8.16 12 0 12 C0 8.04 0 4.08 0 0 Z " fill="#898890" transform="translate(74,139)"/>
<path d="M0 0 C3.96 0 7.92 0 12 0 C12 3.96 12 7.92 12 12 C8.04 12 4.08 12 0 12 C0 8.04 0 4.08 0 0 Z " fill="#000000" transform="translate(278,373)"/>
<path d="M0 0 C3.96 0 7.92 0 12 0 C12 3.96 12 7.92 12 12 C8.04 12 4.08 12 0 12 C0 8.04 0 4.08 0 0 Z " fill="#000000" transform="translate(278,319)"/>
<path d="M0 0 C3.96 0 7.92 0 12 0 C12 3.96 12 7.92 12 12 C8.04 12 4.08 12 0 12 C0 8.04 0 4.08 0 0 Z " fill="#00B6BD" transform="translate(122,283)"/>
<path d="M0 0 C3.96 0 7.92 0 12 0 C12 3.96 12 7.92 12 12 C8.04 12 4.08 12 0 12 C0 8.04 0 4.08 0 0 Z " fill="#FF7956" transform="translate(74,283)"/>
<path d="M0 0 C3.96 0 7.92 0 12 0 C12 3.96 12 7.92 12 12 C8.04 12 4.08 12 0 12 C0 8.04 0 4.08 0 0 Z " fill="#000000" transform="translate(278,253)"/>
<path d="M0 0 C3.96 0 7.92 0 12 0 C12 3.96 12 7.92 12 12 C8.04 12 4.08 12 0 12 C0 8.04 0 4.08 0 0 Z " fill="#ACABB1" transform="translate(74,235)"/>
<path d="M0 0 C3.96 0 7.92 0 12 0 C12 3.96 12 7.92 12 12 C8.04 12 4.08 12 0 12 C0 8.04 0 4.08 0 0 Z " fill="#00B6BD" transform="translate(122,187)"/>
<path d="M0 0 C3.96 0 7.92 0 12 0 C12 3.96 12 7.92 12 12 C8.04 12 4.08 12 0 12 C0 8.04 0 4.08 0 0 Z " fill="#FF7956" transform="translate(74,187)"/>
<path d="M0 0 C3.96 0 7.92 0 12 0 C12 3.96 12 7.92 12 12 C8.04 12 4.08 12 0 12 C0 8.04 0 4.08 0 0 Z " fill="#ACABB1" transform="translate(230,139)"/>
<path d="M0 0 C3.96 0 7.92 0 12 0 C12 3.96 12 7.92 12 12 C8.04 12 4.08 12 0 12 C0 8.04 0 4.08 0 0 Z " fill="#ACABB1" transform="translate(74,139)"/>
<path d="M0 0 C3.96 0 7.92 0 12 0 C12 3.96 12 7.92 12 12 C8.04 12 4.08 12 0 12 C0 8.04 0 4.08 0 0 Z " fill="#000000" transform="translate(254,103)"/>
<path d="M0 0 C3.96 0 7.92 0 12 0 C12 3.96 12 7.92 12 12 C8.04 12 4.08 12 0 12 C0 8.04 0 4.08 0 0 Z " fill="#00B6BD" transform="translate(122,91)"/>
<path d="M0 0 C3.96 0 7.92 0 12 0 C12 3.96 12 7.92 12 12 C8.04 12 4.08 12 0 12 C0 8.04 0 4.08 0 0 Z " fill="#FF7956" transform="translate(74,91)"/>
<path d="M0 0 C3.96 0 7.92 0 12 0 C12 3.96 12 7.92 12 12 C8.04 12 4.08 12 0 12 C0 8.04 0 4.08 0 0 Z " fill="#000000" transform="translate(254,79)"/>
<path d="M0 0 C0 2.64 0 5.28 0 8 C-2.10251861 8.67184618 -4.20707763 9.33730968 -6.3125 10 C-8.07013672 10.556875 -8.07013672 10.556875 -9.86328125 11.125 C-13 12 -13 12 -16 12 C-16 11.34 -16 10.68 -16 10 C-14.35546875 8.7109375 -14.35546875 8.7109375 -12.1875 7.375 C-11.47980469 6.92898438 -10.77210938 6.48296875 -10.04296875 6.0234375 C-8 5 -8 5 -5 5 C-4.67 4.01 -4.34 3.02 -4 2 C-1 0 -1 0 0 0 Z " fill="#F9D852" transform="translate(368,324)"/>
<path d="M0 0 C0 2.64 0 5.28 0 8 C-2.10251861 8.67184618 -4.20707763 9.33730968 -6.3125 10 C-8.07013672 10.556875 -8.07013672 10.556875 -9.86328125 11.125 C-13 12 -13 12 -16 12 C-16 11.34 -16 10.68 -16 10 C-14.35546875 8.7109375 -14.35546875 8.7109375 -12.1875 7.375 C-11.47980469 6.92898438 -10.77210938 6.48296875 -10.04296875 6.0234375 C-8 5 -8 5 -5 5 C-4.67 4.01 -4.34 3.02 -4 2 C-1 0 -1 0 0 0 Z " fill="#F9D852" transform="translate(368,264)"/>
<path d="M0 0 C0.66 0.33 1.32 0.66 2 1 C-0.23407889 4.35111834 -1.26215824 5.81553956 -5.25 6.8125 C-6.61125 6.9053125 -6.61125 6.9053125 -8 7 C-8 6.34 -8 5.68 -8 5 C-6.3203125 3.67578125 -6.3203125 3.67578125 -4.125 2.3125 C-3.40570313 1.85488281 -2.68640625 1.39726562 -1.9453125 0.92578125 C-1.30335938 0.62027344 -0.66140625 0.31476563 0 0 Z " fill="#EECE4A" transform="translate(360,329)"/>
<path d="M0 0 C0.66 0.33 1.32 0.66 2 1 C-0.23407889 4.35111834 -1.26215824 5.81553956 -5.25 6.8125 C-6.61125 6.9053125 -6.61125 6.9053125 -8 7 C-8 6.34 -8 5.68 -8 5 C-6.3203125 3.67578125 -6.3203125 3.67578125 -4.125 2.3125 C-3.40570313 1.85488281 -2.68640625 1.39726562 -1.9453125 0.92578125 C-1.30335938 0.62027344 -0.66140625 0.31476563 0 0 Z " fill="#EECE4A" transform="translate(360,269)"/>
</svg>
