<?xml version="1.0" encoding="UTF-8"?>
<svg version="1.1" xmlns="http://www.w3.org/2000/svg" width="376" height="370">
<path d="M0 0 C124.08 0 248.16 0 376 0 C376 122.1 376 244.2 376 370 C251.92 370 127.84 370 0 370 C0 247.9 0 125.8 0 0 Z " fill="#FDFDFD" transform="translate(0,0)"/>
<path d="M0 0 C4.02159928 0.83205502 5.60933198 1.98407372 8.0625 5.2421875 C10.73348529 9.52911889 12.90475275 14.03948028 15.09765625 18.58203125 C18.27369174 25.13913576 21.64530726 31.59569737 25 38.0625 C25.65952455 39.33560196 26.31902979 40.60871392 26.97851562 41.88183594 C34.75877034 56.89219215 42.64803873 71.84333216 50.625 86.75 C52.71855246 84.06187408 54.48389417 81.36179809 56.11328125 78.37109375 C56.56960937 77.53698975 57.0259375 76.70288574 57.49609375 75.84350586 C58.20958984 74.52878296 58.20958984 74.52878296 58.9375 73.1875 C59.42734375 72.29232666 59.9171875 71.39715332 60.421875 70.47485352 C62.49075747 66.6907056 64.55042101 62.90221924 66.57421875 59.09375 C67.08597656 58.1346875 67.59773438 57.175625 68.125 56.1875 C68.5478125 55.38183594 68.970625 54.57617188 69.40625 53.74609375 C70.64349261 51.71971242 71.79088091 50.25576017 73.625 48.75 C76.5625 48.25 76.5625 48.25 79.625 48.75 C82.86304044 52.22725926 84.9239848 55.99595774 87.015625 60.23828125 C87.32130402 60.85388412 87.62698303 61.469487 87.94192505 62.10374451 C88.92527916 64.08725326 89.90016376 66.0747933 90.875 68.0625 C91.55360028 69.43486663 92.23280194 70.80693606 92.91259766 72.17871094 C94.23728399 74.85355604 95.55906308 77.52980028 96.87792969 80.20751953 C98.90270294 84.31308966 100.94693364 88.40853205 103 92.5 C107.20833333 100.91666667 111.41666667 109.33333333 115.625 117.75 C119.48483838 116.17082216 121.86876113 113.7067285 124.7578125 110.7421875 C125.23572235 110.25670441 125.7136322 109.77122131 126.20602417 109.27102661 C127.72560969 107.72709244 129.23853698 106.17688419 130.75 104.625 C132.74691594 102.57505184 134.75024343 100.53169758 136.7578125 98.4921875 C138.08643311 97.12876221 138.08643311 97.12876221 139.44189453 95.73779297 C141.625 93.75 141.625 93.75 143.625 93.75 C143.625 93.09 143.625 92.43 143.625 91.75 C144.98828125 90.41015625 144.98828125 90.41015625 146.9375 88.8125 C151.61356852 84.89090352 155.69942989 80.49794719 159.81640625 76.0078125 C163.2497803 73.24774268 165.23338998 72.66108101 169.625 72.75 C172.71672383 74.68645438 174.33252455 75.93099335 175.57226562 79.40258789 C175.72373047 80.41571045 175.87519531 81.42883301 176.03125 82.47265625 C176.21486084 83.6318457 176.39847168 84.79103516 176.58764648 85.98535156 C176.76497314 87.24831055 176.9422998 88.51126953 177.125 89.8125 C177.32910344 91.15748673 177.53495437 92.50220927 177.74243164 93.84667969 C178.28810228 97.42321623 178.80607223 101.00319572 179.31573486 104.58502197 C179.61708664 106.69460333 179.92427527 108.80323746 180.23388672 110.91162109 C181.62276661 120.37242971 182.95993115 129.84015562 184.28387451 139.3102417 C185.39101342 147.22859271 186.50354934 155.14616256 187.625 163.0625 C187.81456772 164.40237473 187.81456772 164.40237473 188.00796509 165.76931763 C189.77619141 178.23195758 191.73644396 190.64174037 193.87109375 203.046875 C195.55209916 212.95938433 196.86565643 222.89939148 198.0949707 232.87695312 C198.96968244 239.90316539 199.92773344 246.90303644 201.01953125 253.8984375 C201.19643997 255.03556435 201.19643997 255.03556435 201.37692261 256.19566345 C201.95239091 259.87959428 202.53876688 263.56142741 203.13867188 267.24145508 C203.34915599 268.57109503 203.55945232 269.90076472 203.76953125 271.23046875 C203.95878174 272.39473389 204.14803223 273.55899902 204.34301758 274.75854492 C204.77292426 279.31927787 204.77292426 279.31927787 203.625 281.75 C201.64160156 283.29882812 201.64160156 283.29882812 199.015625 284.78125 C198.04423584 285.338125 197.07284668 285.895 196.07202148 286.46875 C195.01700439 287.0565625 193.9619873 287.644375 192.875 288.25 C191.78968994 288.86875 190.70437988 289.4875 189.58618164 290.125 C186.27234315 292.01185561 182.94955373 293.88210393 179.625 295.75 C176.10104355 297.74453131 172.58111003 299.74605488 169.0625 301.75 C168.22187012 302.22711426 167.38124023 302.70422852 166.51513672 303.19580078 C158.81288188 307.589783 151.243034 312.19271697 143.70092773 316.85546875 C138.37339475 320.13601903 132.98105708 323.21182251 127.47314453 326.17822266 C122.26774681 329.050874 117.20584951 332.16408527 112.125 335.25 C105.14471273 339.48956098 98.14934869 343.62954103 90.93969727 347.46923828 C88.66262528 348.68699583 88.66262528 348.68699583 86.74975586 350.00341797 C81.76044928 353.31999653 77.41456675 353.75717283 71.625 352.75 C66.84333006 350.71626774 62.48361333 348.0781415 58.0625 345.375 C56.80677181 344.62893566 55.54984102 343.88489192 54.29174805 343.14282227 C51.82322485 341.68259359 49.36194205 340.211348 46.90722656 338.72802734 C43.57848187 336.72196594 40.2274942 334.7593736 36.8659668 332.80908203 C31.35230629 329.60237785 25.88967484 326.31005147 20.42578125 323.01953125 C18.77292114 322.02481812 18.77292114 322.02481812 17.08666992 321.01000977 C14.92782686 319.70952283 12.77034347 318.40677499 10.61450195 317.10131836 C4.93561955 313.67686437 -0.79166487 310.39811195 -6.62841797 307.25097656 C-11.4770749 304.60123943 -16.23435522 301.79545511 -21 299 C-22.03455322 298.39454346 -23.06910645 297.78908691 -24.13500977 297.1652832 C-26.22245704 295.94315423 -28.30946057 294.72026699 -30.39599609 293.49658203 C-33.15445423 291.8793054 -35.91480954 290.26532417 -38.67578125 288.65234375 C-40.2214578 287.74757285 -41.76703772 286.84263685 -43.3125 285.9375 C-44.02164551 285.52338867 -44.73079102 285.10927734 -45.46142578 284.68261719 C-50.25990488 281.86509512 -50.25990488 281.86509512 -51.375 280.75 C-51.22206327 272.81605552 -49.58863016 265.00797168 -48.0625 257.25 C-46.0008672 246.48736184 -44.24543899 235.71062172 -42.71948242 224.859375 C-41.91475917 219.17959202 -40.9756984 213.57204589 -39.81030273 207.95532227 C-39.22398669 204.98493931 -38.85241734 202.00633564 -38.5 199 C-37.69663865 192.6996228 -36.6172792 186.48999048 -35.4375 180.25 C-33.78171321 171.46706444 -32.54114929 162.68173765 -31.45166016 153.8125 C-30.6467848 147.41741939 -29.50374424 141.24657943 -28.0546875 134.96484375 C-27.07890559 130.3495075 -26.54845613 125.701983 -25.96484375 121.0234375 C-25.2995005 115.96779136 -24.39371495 110.9569019 -23.5 105.9375 C-22.09183139 97.99205464 -20.77170108 90.0406612 -19.5625 82.0625 C-17.6999798 69.78291681 -15.76377376 57.51575431 -13.8125 45.25 C-13.66461029 44.318461 -13.51672058 43.386922 -13.36434937 42.42715454 C-12.64934704 37.92424245 -11.92941355 33.42227009 -11.19873047 28.921875 C-10.64210281 25.47822252 -10.12389875 22.031777 -9.63330078 18.578125 C-9.51124771 17.75832153 -9.38919464 16.93851807 -9.26344299 16.09387207 C-9.03569628 14.56274688 -8.81972624 13.02980086 -8.61827087 11.49499512 C-7.71633329 5.59550518 -6.13309356 1.36290968 0 0 Z " fill="#FEC400" transform="translate(101.375,8.25)"/>
<path d="M0 0 C4.02159928 0.83205502 5.60933198 1.98407372 8.0625 5.2421875 C10.73348529 9.52911889 12.90475275 14.03948028 15.09765625 18.58203125 C18.27369174 25.13913576 21.64530726 31.59569737 25 38.0625 C25.65952455 39.33560196 26.31902979 40.60871392 26.97851562 41.88183594 C34.75877034 56.89219215 42.64803873 71.84333216 50.625 86.75 C52.71855246 84.06187408 54.48389417 81.36179809 56.11328125 78.37109375 C56.56960937 77.53698975 57.0259375 76.70288574 57.49609375 75.84350586 C58.20958984 74.52878296 58.20958984 74.52878296 58.9375 73.1875 C59.42734375 72.29232666 59.9171875 71.39715332 60.421875 70.47485352 C62.49075747 66.6907056 64.55042101 62.90221924 66.57421875 59.09375 C67.08597656 58.1346875 67.59773438 57.175625 68.125 56.1875 C68.5478125 55.38183594 68.970625 54.57617188 69.40625 53.74609375 C70.64349261 51.71971242 71.79088091 50.25576017 73.625 48.75 C76.5625 48.25 76.5625 48.25 79.625 48.75 C82.86304044 52.22725926 84.9239848 55.99595774 87.015625 60.23828125 C87.32130402 60.85388412 87.62698303 61.469487 87.94192505 62.10374451 C88.92527916 64.08725326 89.90016376 66.0747933 90.875 68.0625 C91.55360028 69.43486663 92.23280194 70.80693606 92.91259766 72.17871094 C94.23728399 74.85355604 95.55906308 77.52980028 96.87792969 80.20751953 C98.59922848 83.69774389 100.33236343 87.18163236 102.07763672 90.65991211 C102.9789955 92.45809663 103.8724082 94.26025724 104.765625 96.0625 C106.19102753 98.91962613 107.67519826 101.74209583 109.171875 104.5625 C109.60064941 105.38395508 110.02942383 106.20541016 110.47119141 107.05175781 C111.3041953 108.64651975 112.14966017 110.23485403 113.00927734 111.81542969 C113.38004395 112.53118164 113.75081055 113.24693359 114.1328125 113.984375 C114.63772217 114.93135254 114.63772217 114.93135254 115.15283203 115.89746094 C115.625 117.75 115.625 117.75 115.04760742 119.64160156 C113.12353494 122.49320444 110.79480166 124.84579569 108.35546875 127.25 C107.83745193 127.76755859 107.31943512 128.28511719 106.78572083 128.81835938 C105.69113696 129.90992916 104.59413065 130.99907451 103.49487305 132.0859375 C101.82350694 133.73911286 100.16021674 135.40008392 98.49804688 137.0625 C97.43015671 138.12547159 96.36181188 139.18798664 95.29296875 140.25 C94.80007858 140.74177734 94.30718842 141.23355469 93.79936218 141.74023438 C90.88139715 144.61889698 87.84907423 147.22260406 84.625 149.75 C82.93195313 151.38986215 81.27058695 153.06251692 79.625 154.75 C76.56864742 157.86026678 73.50374796 160.96199228 70.4375 164.0625 C69.61830078 164.89845703 68.79910156 165.73441406 67.95507812 166.59570312 C67.17197266 167.38525391 66.38886719 168.17480469 65.58203125 168.98828125 C64.87022705 169.71055908 64.15842285 170.43283691 63.42504883 171.17700195 C61.625 172.75 61.625 172.75 59.625 172.75 C59.625 173.41 59.625 174.07 59.625 174.75 C58.19140625 176.16015625 58.19140625 176.16015625 56.1875 177.8125 C51.40448698 181.87974522 47.02446343 186.2754604 42.625 190.75 C37.76853654 195.68933826 32.87478224 200.46151141 27.62109375 204.9765625 C23.95704512 208.23190121 20.55794957 211.75451948 17.125 215.25 C13.13533502 219.31233647 9.17090459 223.33886761 4.8359375 227.03515625 C1.35926569 230.02482012 -1.89460546 233.20620113 -5.1171875 236.46484375 C-5.61651794 236.96968292 -6.11584839 237.47452209 -6.63031006 237.99465942 C-8.70312361 240.09520611 -10.77206156 242.19948808 -12.83691406 244.30786133 C-14.36353669 245.86449651 -15.89617047 247.41500464 -17.4296875 248.96484375 C-18.33187012 249.88386475 -19.23405273 250.80288574 -20.16357422 251.74975586 C-22.375 253.75 -22.375 253.75 -24.375 253.75 C-24.375 254.41 -24.375 255.07 -24.375 255.75 C-25.80859375 257.16235352 -25.80859375 257.16235352 -27.8125 258.81640625 C-32.58222345 262.87214332 -36.97489333 267.2378254 -41.375 271.6875 C-42.14972656 272.46673828 -42.92445312 273.24597656 -43.72265625 274.04882812 C-45.60910757 275.9469242 -47.49316245 277.84733149 -49.375 279.75 C-49.87 278.265 -49.87 278.265 -50.375 276.75 C-49.715 275.76 -49.055 274.77 -48.375 273.75 C-48.705 273.42 -49.035 273.09 -49.375 272.75 C-49.436453 260.61163583 -46.6293325 248.3545319 -44.625 236.4375 C-43.89615471 232.05506522 -43.17092294 227.67203387 -42.4453125 223.2890625 C-42.26632416 222.21139114 -42.08733582 221.13371979 -41.90292358 220.02339172 C-40.16402357 209.53436085 -38.52255251 199.03132747 -36.92285156 188.52026367 C-36.15552079 183.52394126 -35.36432718 178.5544598 -34.33203125 173.60546875 C-33.22924834 168.27083769 -32.58414672 162.90583938 -31.9375 157.5 C-30.98816132 149.86631831 -29.78376167 142.46046942 -28.0546875 134.96484375 C-27.07890559 130.3495075 -26.54845613 125.701983 -25.96484375 121.0234375 C-25.2995005 115.96779136 -24.39371495 110.9569019 -23.5 105.9375 C-22.09183139 97.99205464 -20.77170108 90.0406612 -19.5625 82.0625 C-17.6999798 69.78291681 -15.76377376 57.51575431 -13.8125 45.25 C-13.66461029 44.318461 -13.51672058 43.386922 -13.36434937 42.42715454 C-12.64934704 37.92424245 -11.92941355 33.42227009 -11.19873047 28.921875 C-10.64210281 25.47822252 -10.12389875 22.031777 -9.63330078 18.578125 C-9.51124771 17.75832153 -9.38919464 16.93851807 -9.26344299 16.09387207 C-9.03569628 14.56274688 -8.81972624 13.02980086 -8.61827087 11.49499512 C-7.71633329 5.59550518 -6.13309356 1.36290968 0 0 Z " fill="#FEA001" transform="translate(101.375,8.25)"/>
<path d="M0 0 C2.29258898 2.11513002 3.76426714 4.12346069 5.19921875 6.88671875 C5.59955322 7.65193848 5.9998877 8.4171582 6.41235352 9.20556641 C6.83315186 10.02460449 7.2539502 10.84364258 7.6875 11.6875 C8.12956787 12.53747559 8.57163574 13.38745117 9.02709961 14.26318359 C12.08477217 20.16268004 15.06851253 26.09774723 18.0168457 32.05249023 C21.26172885 38.58418432 24.68394452 45.01897906 28.1171875 51.453125 C28.6117041 52.39188477 28.6117041 52.39188477 29.11621094 53.34960938 C29.81905167 54.66209649 30.56290228 55.95260385 31.3203125 57.234375 C32.24658649 59.64055801 31.90345705 60.58286797 31 63 C29.08227539 65.29003906 29.08227539 65.29003906 26.59765625 67.765625 C25.70755859 68.65507812 24.81746094 69.54453125 23.90039062 70.4609375 C22.96388672 71.38132812 22.02738281 72.30171875 21.0625 73.25 C20.11986651 74.19473794 19.17780257 75.14004452 18.23632812 76.0859375 C11.26683218 83 11.26683218 83 9 83 C9 83.66 9 84.32 9 85 C7.56640625 86.41015625 7.56640625 86.41015625 5.5625 88.0625 C0.77948698 92.12974522 -3.60053657 96.5254604 -8 101 C-12.85646346 105.93933826 -17.75021776 110.71151141 -23.00390625 115.2265625 C-26.66795488 118.48190121 -30.06705043 122.00451948 -33.5 125.5 C-37.48966498 129.56233647 -41.45409541 133.58886761 -45.7890625 137.28515625 C-49.26573431 140.27482012 -52.51960546 143.45620113 -55.7421875 146.71484375 C-56.24151794 147.21968292 -56.74084839 147.72452209 -57.25531006 148.24465942 C-59.32812361 150.34520611 -61.39706156 152.44948808 -63.46191406 154.55786133 C-64.98853669 156.11449651 -66.52117047 157.66500464 -68.0546875 159.21484375 C-68.95687012 160.13386475 -69.85905273 161.05288574 -70.78857422 161.99975586 C-73 164 -73 164 -75 164 C-75 164.66 -75 165.32 -75 166 C-76.43359375 167.41235352 -76.43359375 167.41235352 -78.4375 169.06640625 C-83.20722345 173.12214332 -87.59989333 177.4878254 -92 181.9375 C-92.77472656 182.71673828 -93.54945312 183.49597656 -94.34765625 184.29882812 C-96.23410757 186.1969242 -98.11816245 188.09733149 -100 190 C-101 187 -101 187 -99.734375 184.34765625 C-98.75210938 182.72150391 -98.75210938 182.72150391 -97.75 181.0625 C-97.00347137 179.80180819 -96.25878607 178.54002362 -95.515625 177.27734375 C-95.11021484 176.59269043 -94.70480469 175.90803711 -94.28710938 175.20263672 C-91.95672139 171.21463209 -89.72745073 167.17114877 -87.5 163.125 C-86.79617187 161.84798218 -86.79617187 161.84798218 -86.078125 160.54516602 C-82.8263975 154.60568251 -79.75781793 148.59526317 -76.77734375 142.51611328 C-74.33361841 137.56706665 -71.59924525 132.84117376 -68.76953125 128.1015625 C-66.76520888 124.58846767 -64.96734978 121.00532853 -63.1875 117.375 C-59.91238707 110.69633833 -56.36968264 104.20494543 -52.71826172 97.72558594 C-49.56971456 92.10690116 -46.66285447 86.39913571 -43.828125 80.6171875 C-41.37041728 75.64207066 -38.62896808 70.88845569 -35.78125 66.125 C-33.70526646 62.48292361 -31.84584042 58.76240269 -30 55 C-27.6568466 50.22391721 -25.2322304 45.57027631 -22.5 41 C-19.84183631 36.54772584 -17.46817288 32.02643943 -15.1875 27.375 C-12.14471068 21.17504217 -8.91959681 15.09817629 -5.5625 9.0625 C-5.12510498 8.27472168 -4.68770996 7.48694336 -4.23706055 6.67529297 C-1.13569768 1.13569768 -1.13569768 1.13569768 0 0 Z " fill="#FF6F00" transform="translate(152,98)"/>
<path d="M0 0 C3.24699935 3.46722296 5.29999724 7.2480112 7.390625 11.48828125 C7.84914352 12.41168556 7.84914352 12.41168556 8.31692505 13.35374451 C9.30027916 15.33725326 10.27516376 17.3247933 11.25 19.3125 C11.92860028 20.68486663 12.60780194 22.05693606 13.28759766 23.42871094 C14.61228399 26.10355604 15.93406308 28.77980028 17.25292969 31.45751953 C18.97422848 34.94774389 20.70736343 38.43163236 22.45263672 41.90991211 C23.3539955 43.70809663 24.2474082 45.51025724 25.140625 47.3125 C26.56602753 50.16962613 28.05019826 52.99209583 29.546875 55.8125 C29.97564941 56.63395508 30.40442383 57.45541016 30.84619141 58.30175781 C31.6791953 59.89651975 32.52466017 61.48485403 33.38427734 63.06542969 C33.75504395 63.78118164 34.12581055 64.49693359 34.5078125 65.234375 C35.01272217 66.18135254 35.01272217 66.18135254 35.52783203 67.14746094 C36 69 36 69 35.42260742 70.89160156 C33.49853494 73.74320444 31.16980166 76.09579569 28.73046875 78.5 C28.21245193 79.01755859 27.69443512 79.53511719 27.16072083 80.06835938 C26.06613696 81.15992916 24.96913065 82.24907451 23.86987305 83.3359375 C22.19850694 84.98911286 20.53521674 86.65008392 18.87304688 88.3125 C17.80515671 89.37547159 16.73681188 90.43798664 15.66796875 91.5 C15.17507858 91.99177734 14.68218842 92.48355469 14.17436218 92.99023438 C11.25648324 95.86881204 8.22314833 98.47166001 5 101 C4.34 101.66 3.68 102.32 3 103 C2.78811035 102.49968262 2.5762207 101.99936523 2.35791016 101.48388672 C-0.65382745 94.53024732 -4.11477744 87.83778947 -7.625 81.125 C-8.24808396 79.92873363 -8.87096586 78.73236199 -9.49365234 77.53588867 C-13.57150787 69.70681064 -17.6709308 61.88887182 -21.80322266 54.08837891 C-22.52755206 52.71899835 -23.23902081 51.34271398 -23.93554688 49.95898438 C-24.96468983 47.96198 -24.96468983 47.96198 -26.36132812 46.13476562 C-27.78769008 44.00727337 -28.56709544 42.53428395 -29 40 C-27.75132735 35.58647979 -25.54634444 31.82434346 -23.25 27.875 C-22.64051514 26.77220703 -22.03103027 25.66941406 -21.40307617 24.53320312 C-19.62966614 21.33895246 -17.81714627 18.16950148 -16 15 C-15.1328331 13.43182991 -14.2689988 11.86180703 -13.41015625 10.2890625 C-7.2533963 -0.87040756 -7.2533963 -0.87040756 0 0 Z " fill="#FE8F01" transform="translate(181,57)"/>
<path d="M0 0 C2.31 0 4.62 0 7 0 C7 122.1 7 244.2 7 370 C4.69 370 2.38 370 0 370 C0 247.9 0 125.8 0 0 Z " fill="#F5F5F5" transform="translate(369,0)"/>
</svg>
