<?xml version="1.0" encoding="UTF-8"?>
<svg version="1.1" viewBox="0 0 2020 1816" width="1280" height="1280" xmlns="http://www.w3.org/2000/svg">
  <defs>
    <linearGradient id="grad1" x1="0%" y1="0%" x2="100%" y2="100%">
      <stop offset="0%" style="stop-color:#87CEFA;stop-opacity:1" />
      <stop offset="100%" style="stop-color:#4682B4;stop-opacity:1" />
    </linearGradient>
    <linearGradient id="grad2" x1="0%" y1="0%" x2="100%" y2="100%">
      <stop offset="0%" style="stop-color:#B0E0E6;stop-opacity:1" />
      <stop offset="100%" style="stop-color:#5F9EA0;stop-opacity:1" />
    </linearGradient>
  </defs>
  <path transform="translate(0)" d="m0 0h2020v1816h-2020z" fill="#FEFEFE"/>
  <path transform="translate(585,536)" d="m0 0h33l33 3 34 6 42 12 52 18 36 12 28 7 18 4 21 2h31l24-3 36-9 40-14 21-8 31-11 36-10 35-6 26-3h43l29 3 32 6 20 6 23 8 33 15 18 10 15 9 15 10 21 16 10 8 10 9 13 12 10 9 7 8 12 14 10 11-5 5-11 6-19 13-16 12-13 11-3 3h-2l-1 3-8 7-10 10-5 7h-2l-2 4-12 15-16 24-12 22-10 21-11 30-6 25-5 24-2 13-1 13v49l2 20 5 27 7 29 12 34 14 29 10 18 14 21 13 17 9 10 7 8 19 19 11 9 15 12 18 12 22 13 16 8 22 9-1 6-26 56-19 38-8 14-6 11-9 16-12 19-15 24-28 42-14 19-12 17-10 12-11 14-12 14-9 10-9 9-7 8-9 9-11 9-11 10-14 11-15 10-19 11-20 9-15 5-24 5-8 1h-32l-28-5-19-5-28-11-19-9-26-11-28-10-26-6-20-4-18-2h-57l-23 3-38 8-33 11-56 24-24 9-27 6-14 2-21 1-23-2-25-5-22-8-17-8-17-10-17-12-13-11-10-8-10-9-26-26-9-11-13-15-11-14-12-16-13-18-26-39-13-21-17-28-12-22-18-34-17-37-13-31-15-39-15-47-8-28-11-47-7-40-6-41-3-40-1-28v-28l2-43 2-24 7-41 8-36 12-38 11-27 12-25 13-23 10-15 13-18 13-16 15-16 9-10 19-19 11-9 11-10 19-14 12-8 17-11 22-12 29-14 25-9 25-7 26-5z" fill="url(#grad1)"/>
  <path transform="translate(1154,176)" d="m0 0h6l2 21v37l-2 19-7 36-8 27-10 26-16 33-17 28-12 16-7 9-12 14-9 10-7 7-8 7-11 10-19 14-15 10-22 13-33 15-34 11-24 4-30 2h-8l-2-7-2-17v-30l2-18 6-33 8-26 10-25 12-25 11-19 9-14 8-11 9-12 9-11 15-16 14-14 8-7 15-12 18-13 24-15 27-14 20-9 28-10 25-6z" fill="url(#grad2)"/>
</svg>

